<svg width="39" height="42" viewBox="0 0 39 42" fill="none" xmlns="http://www.w3.org/2000/svg">
<path fill-rule="evenodd" clip-rule="evenodd" d="M5.85004 0.000510691C2.61915 0.000510691 0 2.80883 0 6.27308V35.5444C0 39.0091 2.61915 41.817 5.85004 41.817H25.3499C28.5808 41.817 31.1999 39.0091 31.1999 35.5444V23.6561L37.648 16.7423C39.4507 14.8095 39.4507 11.676 37.648 9.74315L35.7631 7.72204C34.5278 6.39754 32.7662 5.98059 31.1998 6.47174V6.27256C31.1998 2.80832 28.5807 0 25.3498 0L5.85004 0.000510691ZM27.2996 9.79826V6.27343C27.2996 5.11865 26.4267 4.18234 25.3497 4.18234H5.84987C4.77288 4.18234 3.89964 5.11865 3.89964 6.27343V35.5448C3.89964 36.6996 4.77288 37.6359 5.84987 37.6359H25.3497C26.4267 37.6359 27.2996 36.6996 27.2996 35.5448V27.8382L22.5684 32.9115L21.6259 33.922C21.3275 34.2419 20.9404 34.4492 20.5229 34.5132L13.9256 35.5237C13.3181 35.6168 12.705 35.3977 12.2708 34.9325C11.8369 34.467 11.6326 33.81 11.7194 33.1582L12.6619 26.0844C12.7216 25.6367 12.9148 25.2216 13.2132 24.9017L27.2996 9.79826ZM18.2922 25.3703L28.7287 14.1792L31.626 17.2857L21.1887 28.4769L18.2922 25.3703ZM31.4866 11.223L34.3835 14.3292L34.8899 13.7866C35.1693 13.487 35.1693 13.0012 34.8899 12.7012L33.0049 10.6801C32.7251 10.3805 32.2723 10.3805 31.9926 10.6801L31.4866 11.223ZM16.2063 29.0479L17.7592 30.713L15.9474 30.9905L16.2063 29.0479Z" fill="#5CC265"/>
</svg>
