<svg width="60" height="60" viewBox="0 0 60 60" fill="none" xmlns="http://www.w3.org/2000/svg">
<path d="M7.41169 16.4847C16.2783 7.60113 30.0569 6.53974 40.1731 13.9175C40.7205 14.328 40.8404 15.0983 40.4468 15.6462C40.0363 16.1941 39.266 16.3135 38.7181 15.9199C29.5948 9.24433 17.1511 10.2202 9.14055 18.2309C4.82716 22.5443 2.44813 28.2783 2.44813 34.372C2.44813 40.4654 4.82728 46.1995 9.14055 50.5132C13.4539 54.8266 19.188 57.2057 25.2817 57.2057C31.3751 57.2057 37.1097 54.8265 41.4229 50.5132C49.4161 42.5026 50.392 30.0591 43.7334 20.9357C43.3398 20.3709 43.4597 19.6006 44.0075 19.207C44.5554 18.8128 45.3253 18.9328 45.7533 19.4976C53.131 29.6137 52.0526 43.3931 43.1861 52.259C38.4104 57.0347 32.0598 59.6706 25.2982 59.6706C18.5366 59.6706 12.1874 57.0347 7.41153 52.259C2.63589 47.4834 0 41.1333 0 34.3724C0 27.6113 2.63589 21.2604 7.41153 16.4845L7.41169 16.4847ZM12.0843 21.1578C18.2468 14.9784 28.0374 13.9175 35.3633 18.6244C35.9455 19.0011 36.0993 19.7714 35.74 20.3362C35.3633 20.901 34.6104 21.0722 34.0452 20.7129C27.6781 16.6389 19.1877 17.563 13.83 22.9034C7.51382 29.2371 7.49686 39.5236 13.83 45.8407C20.1632 52.157 30.4503 52.157 36.7674 45.8407C42.1079 40.4834 43.0319 31.9761 38.9584 25.6256C38.5986 25.0434 38.7698 24.273 39.3346 23.9138C39.9168 23.5545 40.6697 23.7083 41.0464 24.2905C45.7365 31.6165 44.675 41.4071 38.513 47.5695C34.8674 51.2155 30.0744 53.0298 25.2982 53.0298C20.5056 53.0298 15.73 51.2155 12.0835 47.5695C4.80873 40.2947 4.80873 28.4325 12.0835 21.1585L12.0843 21.1578ZM16.7575 25.8304C20.318 22.2531 25.7952 21.2946 30.3659 23.4C30.9819 23.6911 31.2561 24.4271 30.965 25.0431C30.6739 25.6592 29.9379 25.9334 29.3387 25.6422C25.6927 23.9647 21.345 24.7351 18.5036 27.5765C14.7551 31.325 14.7551 37.4189 18.5036 41.1676C22.2527 44.9161 28.3461 44.9161 32.0947 41.1676C34.9361 38.3262 35.7065 33.9785 34.029 30.3325C33.7379 29.699 34.012 28.9804 34.6281 28.6894C35.2442 28.3983 35.9801 28.672 36.2712 29.2885C38.3766 33.8586 37.4008 39.3359 33.8408 42.8969C31.4786 45.2417 28.3973 46.423 25.2992 46.423C22.201 46.423 19.1028 45.2591 16.758 42.8969C12.0511 38.1895 12.0511 30.5386 16.758 25.831L16.7575 25.8304ZM23.6728 29.1515C24.3232 28.9286 25.0079 29.3053 25.2129 29.9557C25.4184 30.6061 25.0591 31.2908 24.4088 31.4963C23.9295 31.6505 23.5185 31.8899 23.1592 32.2322C21.9953 33.4136 21.9953 35.3135 23.1592 36.4774C24.3401 37.6414 26.24 37.6414 27.4039 36.4774C27.7463 36.1351 28.003 35.7071 28.1399 35.2448C28.3454 34.5945 29.0301 34.2178 29.6805 34.4233C30.3309 34.6288 30.7075 35.3135 30.502 35.9639C30.2453 36.8198 29.783 37.5901 29.15 38.2231C28.0716 39.2845 26.6853 39.8149 25.2815 39.8149C23.8777 39.8149 22.4744 39.2844 21.413 38.2231C19.2906 36.1006 19.2906 32.6258 21.413 30.5035C22.0465 29.8875 22.8168 29.4078 23.6727 29.1515L23.6728 29.1515ZM48.6639 0.361301C48.9719 0.0532703 49.3999 -0.0666465 49.8278 0.0358654C50.2388 0.138864 50.5638 0.446891 50.7006 0.857433L52.2412 5.75302L54.7746 3.21962C55.2538 2.74042 56.041 2.74042 56.5203 3.21962C57 3.69883 57 4.48651 56.5203 4.96571L53.9357 7.55035L59.0025 9.14219C59.4135 9.27904 59.7215 9.60448 59.824 10.0319C59.927 10.443 59.8071 10.8878 59.4991 11.1963L52.4125 18.2824C52.1727 18.5223 51.8646 18.6417 51.5397 18.6417C51.4028 18.6417 51.2829 18.6248 51.163 18.5905L45.0866 16.6737C45.0179 16.6393 44.9666 16.605 44.9154 16.5707L26.4803 35.0057C26.2405 35.2456 25.9324 35.3655 25.607 35.3655C25.2821 35.3655 24.974 35.2456 24.7342 35.0057C24.255 34.5265 24.255 33.7393 24.7342 33.26L43.2039 14.7903C43.2039 14.7734 43.187 14.7734 43.187 14.756L41.2697 8.67953C41.1328 8.25158 41.2528 7.77237 41.5777 7.44693L48.6639 0.361301ZM52.0014 9.48462L46.8496 14.6365L51.1973 16.0058L56.3153 10.8878L52.1726 9.587C52.1045 9.55266 52.0532 9.51881 52.0015 9.48448L52.0014 9.48462ZM48.9719 3.5451L43.8538 8.66314L45.1546 12.8566L50.29 7.7217L50.2726 7.68737L48.9719 3.5451Z" fill="#539BF8"/>
</svg>
