<svg width="50" height="45" viewBox="0 0 50 45" fill="none" xmlns="http://www.w3.org/2000/svg">
<path d="M39.2965 0.223145C39.8904 0.223145 40.3659 0.698203 40.3659 1.29212V3.38614H48.5036C49.0975 3.38614 49.5726 3.8612 49.5726 4.45552V43.1542C49.5726 43.7481 49.0975 44.2231 48.5036 44.2231H1.39946C0.805532 44.2231 0.330078 43.7481 0.330078 43.1542V4.45552C0.330078 3.8612 0.805532 3.38614 1.39946 3.38614H9.5372V1.29212C9.5372 0.698193 10.0123 0.223145 10.6062 0.223145C11.2005 0.223145 11.6755 0.698203 11.6755 1.29212V3.38614H19.1005V1.29212C19.1005 0.698193 19.5756 0.223145 20.1695 0.223145C20.7634 0.223145 21.2389 0.698203 21.2389 1.29212V3.38614H28.6639V1.29212C28.6639 0.698193 29.1389 0.223145 29.7329 0.223145C30.3268 0.223145 30.8022 0.698203 30.8022 1.29212V3.38614H38.2272V1.29212C38.2272 0.698193 38.7023 0.223145 39.2962 0.223145H39.2965ZM9.53791 5.52449H2.46914V42.085H47.4352V5.52449H40.3667V7.88548C40.3667 8.4798 39.8912 8.95486 39.2973 8.95486C38.7034 8.95486 38.2283 8.4798 38.2283 7.88548V5.52449H30.8033V7.88548C30.8033 8.4798 30.3279 8.95486 29.734 8.95486C29.14 8.95486 28.665 8.4798 28.665 7.88548V5.52449H21.24V7.88548C21.24 8.4798 20.7646 8.95486 20.1706 8.95486C19.5767 8.95486 19.1017 8.4798 19.1017 7.88548V5.52449H11.6767V7.88548C11.6767 8.4798 11.2016 8.95486 10.6073 8.95486C10.0134 8.95486 9.53831 8.4798 9.53831 7.88548L9.53791 5.52449ZM9.86439 32.3436C10.4436 32.3436 10.9338 32.8187 10.9338 33.4126V35.0906C10.9338 35.6849 10.4587 36.16 9.86439 36.16C9.27047 36.16 8.79542 35.6849 8.79542 35.0906V33.4126C8.79542 32.8187 9.27048 32.3436 9.86439 32.3436ZM17.4233 32.3436C18.0021 32.3436 18.4922 32.8187 18.4922 33.4126V35.0906C18.4922 35.6849 18.0172 36.16 17.4233 36.16C16.829 36.16 16.3539 35.6849 16.3539 35.0906V33.4126C16.3539 32.8187 16.829 32.3436 17.4233 32.3436ZM24.9818 32.3436C25.5758 32.3436 26.0508 32.8187 26.0508 33.4126V35.0906C26.0508 35.6849 25.5758 36.16 24.9818 36.16C24.3879 36.16 23.9125 35.6849 23.9125 35.0906V33.4126C23.9125 32.8187 24.3879 32.3436 24.9818 32.3436ZM34.0848 21.8598C35.4358 21.8598 36.5349 22.9439 36.5349 24.31V27.5917C36.5349 28.9432 35.4358 30.0419 34.0848 30.0419H30.7879C29.4369 30.0419 28.3378 28.9432 28.3378 27.5917V24.31C28.3378 22.9585 29.4369 21.8598 30.7879 21.8598H34.0848ZM34.0995 23.9982H30.803C30.6393 23.9982 30.5058 24.1317 30.5058 24.2953V27.5771C30.5058 27.7403 30.6393 27.8739 30.803 27.8739H34.0995C34.2631 27.8739 34.3966 27.7403 34.3966 27.5771V24.2953C34.3966 24.1317 34.2631 23.9982 34.0995 23.9982ZM9.86475 23.9831C10.4591 23.9831 10.9341 24.4586 10.9341 25.0525V26.7305C10.9341 27.3244 10.4591 27.7998 9.86475 27.7998C9.27083 27.7998 8.79578 27.3244 8.79578 26.7305V25.0525C8.79578 24.4586 9.27083 23.9831 9.86475 23.9831ZM40.0544 23.9831C40.6483 23.9831 41.1234 24.4586 41.1234 25.0525V26.7305C41.1234 27.3244 40.6483 27.7998 40.0544 27.7998C39.4601 27.7998 38.985 27.3244 38.985 26.7305V25.0525C38.985 24.4586 39.4601 23.9831 40.0544 23.9831ZM24.9373 23.9831C25.5312 23.9831 26.0066 24.4586 26.0066 25.0525V26.7305C26.0066 27.3244 25.5312 27.7998 24.9373 27.7998C24.3433 27.7998 23.8683 27.3244 23.8683 26.7305V25.0525C23.8683 24.4586 24.3434 23.9831 24.9373 23.9831ZM17.3787 23.9831C17.9726 23.9831 18.4481 24.4586 18.4481 25.0525V26.7305C18.4481 27.3244 17.9726 27.7998 17.3787 27.7998C16.7848 27.7998 16.3097 27.3244 16.3097 26.7305V25.0525C16.3097 24.4586 16.7848 23.9831 17.3787 23.9831ZM9.86455 15.6377C10.4438 15.6377 10.9339 16.1128 10.9339 16.7067V18.37C10.9339 18.9639 10.4589 19.4394 9.86455 19.4394C9.27062 19.4394 8.79557 18.9639 8.79557 18.37V16.7067C8.79557 16.1128 9.27063 15.6377 9.86455 15.6377ZM17.4234 15.6377C18.0023 15.6377 18.4924 16.1128 18.4924 16.7067V18.37C18.4924 18.9639 18.0173 19.4394 17.4234 19.4394C16.8291 19.4394 16.354 18.9639 16.354 18.37V16.7067C16.354 16.1128 16.8291 15.6377 17.4234 15.6377ZM24.982 15.6377C25.5759 15.6377 26.051 16.1128 26.051 16.7067V18.37C26.051 18.9639 25.5759 19.4394 24.982 19.4394C24.3881 19.4394 23.9126 18.9639 23.9126 18.37V16.7067C23.9126 16.1128 24.3881 15.6377 24.982 15.6377ZM32.5406 15.6227C33.1345 15.6227 33.6096 16.0981 33.6096 16.6921V18.3553C33.6096 18.9492 33.1345 19.4243 32.5406 19.4243C31.9467 19.4243 31.4712 18.9492 31.4712 18.3553V16.6921C31.4712 16.0981 31.9467 15.6227 32.5406 15.6227ZM40.0547 15.608C40.6486 15.608 41.1237 16.0831 41.1237 16.677V18.3403C41.1237 18.9342 40.6486 19.4096 40.0547 19.4096C39.4604 19.4096 38.9853 18.9342 38.9853 18.3403V16.677C38.9853 16.0831 39.4604 15.608 40.0547 15.608Z" fill="#539BF8"/>
</svg>
