<svg width="38" height="35" viewBox="0 0 38 35" fill="none" xmlns="http://www.w3.org/2000/svg">
<path d="M33.9285 5.60935e-05H4.07142C2.99144 5.60935e-05 1.95606 0.451911 1.19234 1.25607C0.428949 2.06055 0 3.15125 0 4.28889V24.3034C0 25.4411 0.428949 26.5318 1.19234 27.3363C1.95604 28.1404 2.99144 28.5923 4.07142 28.5923H8.66118L6.92808 32.242C6.76722 32.5815 6.74086 32.9743 6.85507 33.3339C6.96898 33.6939 7.21405 33.991 7.53606 34.1607C7.85838 34.3302 8.23129 34.358 8.57268 34.2376C8.91439 34.1177 9.19642 33.8595 9.35757 33.5203L11.6959 28.5923H26.3041L28.6424 33.5203C28.8593 33.9773 29.291 34.2779 29.7751 34.3088C30.2595 34.3394 30.7224 34.096 30.9898 33.6696C31.2573 33.2433 31.2885 32.6992 31.0719 32.2419L29.3388 28.5922H33.9286C35.0086 28.5922 36.0439 28.1404 36.8077 27.3362C37.5711 26.5317 38 25.441 38 24.3034V4.28883C38 3.15119 37.5711 2.06052 36.8077 1.25602C36.044 0.451855 35.0086 0 33.9286 0L33.9285 5.60935e-05ZM4.07142 2.85928H33.9285C34.2884 2.85928 34.6337 3.0099 34.8882 3.27795C35.1426 3.546 35.2856 3.90979 35.2856 4.28889V18.585H2.71428V4.28889C2.71428 3.90979 2.85727 3.546 3.11173 3.27795C3.36619 3.0099 3.71153 2.85928 4.07142 2.85928ZM33.9285 25.7331H4.07142C3.71153 25.7331 3.36619 25.5824 3.11173 25.3144C2.85727 25.0463 2.71428 24.6826 2.71428 24.3034V21.4442H35.2856V24.3034C35.2856 24.6826 35.1426 25.0463 34.8882 25.3144C34.6337 25.5824 34.2884 25.7331 33.9285 25.7331Z" fill="#539BF8"/>
</svg>
