<?xml version="1.0" encoding="utf-8"?>
<!-- Generator: Adobe Illustrator 16.0.0, SVG Export Plug-In . SVG Version: 6.00 Build 0)  -->
<!DOCTYPE svg PUBLIC "-//W3C//DTD SVG 1.1//EN" "http://www.w3.org/Graphics/SVG/1.1/DTD/svg11.dtd">
<svg version="1.1" id="Layer_1" xmlns="http://www.w3.org/2000/svg" xmlns:xlink="http://www.w3.org/1999/xlink" x="0px" y="0px"
	 width="336px" height="336px" viewBox="0 0 336 336" enable-background="new 0 0 336 336" xml:space="preserve">
<g>
	<defs>
		<rect id="SVGID_1_" width="336" height="336"/>
	</defs>
	<clipPath id="SVGID_2_">
		<use xlink:href="#SVGID_1_"  overflow="visible"/>
	</clipPath>
	<path clip-path="url(#SVGID_2_)" fill-rule="evenodd" clip-rule="evenodd" d="M264.109,191.303l-0.001,0.005
		c-2.785,13.443-15.187,47.944-54.736,66.624l-15.882-17.865l-26.801,26.932c-17.167-0.048-52.94-6.123-78.217-40.121
		c0,0,5.019,1.583,8.761,1.652c4.385,0.08,9.142-1.529,9.142-8.897v-72.7c0.474-6.036-5.34-14.204-15.057-11.979
		c-12.406,2.842-22.32,33.796-22.32,33.796c-0.034-37.391,19.184-62.85,34.076-75.442c18.511-15.653,36.554-21.031,50.263-23.19
		c-13.543,7.724-21.155,20.316-21.155,30.87c0,16.955,10.236,14.947,13.267,12.446v98.114c0,0,0.604,1.582,2.016,3.457
		c2.044,2.709,5.781,6.021,11.843,6.021c10.255,0,23.558-11.704,23.558-11.704v-79.44c0-8.081-6.098-17.838-12.192-21.185
		c0,0,11.287-2.035,20.015,4.666c1.888-2.292,3.662-4.211,5.212-5.735c20.298-19.95,39.454-25.602,55.402-28.471l0.018-0.003
		c0,0-29.031,22.789-29.031,53.364c0,22.74,0.589,78.199,0.589,78.199C233.652,221.12,249.652,206.108,264.109,191.303"/>
	<path clip-path="url(#SVGID_2_)" fill-rule="evenodd" clip-rule="evenodd" d="M168,6.263C78.675,6.263,6.263,78.675,6.263,168
		S78.675,329.737,168,329.737S329.737,257.325,329.737,168S257.325,6.263,168,6.263 M168,323.268
		c-85.752,0-155.268-69.516-155.268-155.268S82.248,12.732,168,12.732S323.268,82.248,323.268,168S253.752,323.268,168,323.268"/>
</g>
</svg>
