<svg width="954" height="350" viewBox="0 0 954 350" fill="none" xmlns="http://www.w3.org/2000/svg">
<path d="M104.24 308H122V303.946H111.406V303.815L115.177 300.316C120.286 295.902 121.657 293.695 121.657 290.997C121.657 286.893 118.126 284 112.811 284C107.583 284 103.983 286.959 104 291.586H108.903C108.886 289.313 110.411 287.907 112.743 287.924C115.023 287.907 116.686 289.215 116.686 291.324C116.686 293.204 115.434 294.512 113.12 296.621L104.206 304.436L104.24 308Z" fill="white"/>
<path d="M140 309C146.22 309 150 304.498 150 296.5C150 288.553 146.203 284 140 284C133.797 284 130 288.553 130 296.5C130 304.464 133.763 309 140 309ZM135.292 296.5C135.292 290.938 137.131 288.15 140 288.133C142.869 288.15 144.725 290.938 144.708 296.5C144.725 302.112 142.887 304.834 140 304.834C137.113 304.834 135.258 302.112 135.292 296.5Z" fill="white"/>
<path d="M157.24 308H175V303.946H164.406V303.815L168.177 300.316C173.286 295.902 174.657 293.695 174.657 290.997C174.657 286.893 171.126 284 165.812 284C160.583 284 156.983 286.959 157 291.586H161.903C161.886 289.313 163.411 287.907 165.743 287.924C168.023 287.907 169.686 289.215 169.686 291.324C169.686 293.204 168.434 294.512 166.12 296.621L157.206 304.436L157.24 308Z" fill="white"/>
<path d="M183.24 308H201V303.946H190.406V303.815L194.177 300.316C199.286 295.902 200.658 293.695 200.658 290.997C200.658 286.893 197.126 284 191.811 284C186.583 284 182.983 286.959 183 291.586H187.903C187.886 289.313 189.411 287.907 191.743 287.924C194.023 287.907 195.686 289.215 195.686 291.324C195.686 293.204 194.435 294.512 192.121 296.621L183.206 304.436L183.24 308Z" fill="white"/>
<path d="M211.515 309C212.847 309 214 307.653 214 305.983C214 304.33 212.847 302.983 211.515 303C210.108 302.983 208.971 304.33 209.001 305.983C208.971 307.653 210.108 309 211.515 309Z" fill="white"/>
<path d="M231 309C237.22 309 241 304.498 241 296.5C241 288.553 237.203 284 231 284C224.798 284 221 288.553 221 296.5C221 304.464 224.763 309 231 309ZM226.292 296.5C226.292 290.938 228.131 288.15 231 288.133C233.87 288.15 235.725 290.938 235.708 296.5C235.725 302.112 233.887 304.834 231 304.834C228.114 304.834 226.258 302.112 226.292 296.5Z" fill="white"/>
<path d="M258 309C263.809 309 268 306.077 268 302.112C268 299.054 265.5 296.567 262.401 296.097V295.929C265.078 295.425 267.032 293.223 267.049 290.552C267.032 286.772 263.211 284 258 284C252.789 284 248.968 286.772 248.986 290.552C248.968 293.223 250.87 295.425 253.634 295.929V296.097C250.465 296.567 248 299.054 248 302.112C248 306.077 252.173 309 258 309ZM253.528 301.608C253.51 299.491 255.412 297.962 258 297.945C260.588 297.962 262.49 299.508 262.472 301.608C262.49 303.691 260.693 305.153 258 305.136C255.307 305.153 253.51 303.691 253.528 301.608ZM254.162 291.056C254.145 289.158 255.711 287.83 258 287.83C260.271 287.83 261.856 289.158 261.873 291.056C261.856 293.005 260.236 294.366 258 294.383C255.747 294.366 254.145 293.005 254.162 291.056Z" fill="white"/>
<path d="M277.515 309C278.848 309 280 307.653 280 305.983C280 304.33 278.848 302.983 277.515 303C276.108 302.983 274.97 304.33 275.001 305.983C274.97 307.653 276.108 309 277.515 309Z" fill="white"/>
<path d="M297 309C303.22 309 307 304.498 307 296.5C307 288.553 303.203 284 297 284C290.797 284 287 288.553 287 296.5C287 304.464 290.763 309 297 309ZM292.292 296.5C292.292 290.938 294.131 288.15 297 288.133C299.869 288.15 301.725 290.938 301.708 296.5C301.725 302.112 299.886 304.834 297 304.834C294.114 304.834 292.257 302.112 292.292 296.5Z" fill="white"/>
<path d="M324.198 284C318.709 283.983 315 287.545 315 292.434C315.034 296.97 318.257 300.264 322.62 300.264C325.322 300.264 327.723 298.987 328.864 296.836H329.066C329.049 301.691 327.303 304.665 323.997 304.665C322.05 304.665 320.656 303.607 320.237 301.809H315.269C315.756 305.926 319.112 309 323.997 309C330.106 309 334.017 304.128 334 295.862C334 287.024 329.233 284.016 324.198 284ZM319.934 292.3C319.901 289.881 321.748 287.981 324.232 287.965C326.716 287.981 328.528 289.948 328.562 292.266C328.562 294.602 326.665 296.567 324.198 296.567C321.697 296.567 319.934 294.702 319.934 292.3Z" fill="white"/>
<path d="M365 294H354V298H365V294Z" fill="white"/>
<path d="M395.5 309C401.409 309 405 304.498 405 296.5C405 288.553 401.393 284 395.5 284C389.607 284 386 288.553 386 296.5C386 304.464 389.574 309 395.5 309ZM391.028 296.5C391.028 290.938 392.774 288.15 395.5 288.133C398.226 288.15 399.989 290.938 399.972 296.5C399.989 302.112 398.242 304.834 395.5 304.834C392.758 304.834 390.995 302.112 391.028 296.5Z" fill="white"/>
<path d="M422.5 309C428.02 309 432 306.077 432 302.112C432 299.054 429.625 296.567 426.681 296.097V295.929C429.224 295.425 431.08 293.223 431.097 290.552C431.08 286.772 427.451 284 422.5 284C417.55 284 413.92 286.772 413.937 290.552C413.92 293.223 415.726 295.425 418.352 295.929V296.097C415.341 296.567 413 299.054 413 302.112C413 306.077 416.964 309 422.5 309ZM418.252 301.608C418.235 299.491 420.042 297.962 422.5 297.945C424.959 297.962 426.765 299.508 426.748 301.608C426.765 303.691 425.059 305.153 422.5 305.136C419.941 305.153 418.235 303.691 418.252 301.608ZM418.854 291.056C418.837 289.158 420.326 287.83 422.5 287.83C424.658 287.83 426.163 289.158 426.18 291.056C426.163 293.005 424.624 294.366 422.5 294.383C420.359 294.366 418.837 293.005 418.854 291.056Z" fill="white"/>
<path d="M442.018 309C443.617 309 445 307.653 445 305.983C445 304.33 443.617 302.983 442.018 303C440.33 302.983 438.965 304.33 439.001 305.983C438.965 307.653 440.33 309 442.018 309Z" fill="white"/>
<path d="M461.431 309C467.019 309 471.034 306.009 471 301.843C471.034 298.802 469.035 296.634 465.395 296.198V295.996C468.163 295.508 470.094 293.577 470.077 290.855C470.094 287.007 466.659 284 461.499 284C456.425 284 452.598 286.906 452.512 291.09H457.433C457.518 289.225 459.313 288.015 461.499 288.032C463.687 288.015 465.139 289.292 465.122 291.157C465.139 293.072 463.43 294.383 460.987 294.383H458.698V298.113H460.987C463.892 298.13 465.686 299.524 465.669 301.507C465.686 303.473 463.926 304.817 461.466 304.834C459.073 304.817 457.279 303.624 457.194 301.809H452C452.102 306.06 455.998 309 461.431 309Z" fill="white"/>
<path d="M488.5 309C494.408 309 498 304.498 498 296.5C498 288.553 494.392 284 488.5 284C482.607 284 479 288.553 479 296.5C479 304.464 482.574 309 488.5 309ZM484.028 296.5C484.028 290.938 485.774 288.15 488.5 288.133C491.226 288.15 492.988 290.938 492.973 296.5C492.988 302.112 491.242 304.834 488.5 304.834C485.757 304.834 483.995 302.112 484.028 296.5Z" fill="white"/>
<path d="M523 280H521V312H523V280Z" fill="#81A1FF"/>
<path d="M572 281H567.842V292.44H565.048V281.428H560.925V309.616H565.048V295.868H567.842V311H572V281ZM546 303.45H558.335V284.099H546V303.45ZM550.055 300.154V287.428H554.28V300.154H550.055Z" fill="white"/>
<path d="M608 297.274H580V300.705H591.808V311H596.058V300.705H608V297.274ZM581.383 292.126L582.969 295.49C588.316 294.768 592.145 292.48 594.017 289.334C595.873 292.48 599.735 294.768 605.132 295.49L606.684 292.126C600.376 291.369 596.986 288.375 596.547 285.364H605.504V282H582.53V285.364H591.487C591.031 288.375 587.59 291.369 581.383 292.126Z" fill="white"/>
<path d="M650.977 281H646.617V311H650.977V296.692H655V293.198H650.977V281ZM626 302.527L626.575 305.956C631.763 305.973 638.827 305.923 645.367 304.736L645.097 301.671C642.815 301.983 640.365 302.181 637.932 302.313V299.89C641.176 299.28 643.339 297.236 643.373 294.45C643.339 291.104 640.196 288.813 635.802 288.813C631.323 288.813 628.214 291.104 628.231 294.45C628.214 297.236 630.344 299.264 633.605 299.89V302.461C630.868 302.527 628.248 302.527 626 302.527ZM626.609 287.627H644.86V284.329H637.932V281.164H633.605V284.329H626.609V287.627ZM632.321 294.45C632.304 292.901 633.69 292.027 635.802 292.011C637.847 292.027 639.215 292.901 639.215 294.45C639.215 296.033 637.847 296.89 635.802 296.89C633.69 296.89 632.304 296.033 632.321 294.45Z" fill="white"/>
<path d="M689 304.408H682.782V296.693C685.084 295.239 686.462 293.067 686.479 290.382C686.462 285.336 681.572 282.017 674.95 282C668.294 282.017 663.454 285.336 663.454 290.382C663.454 293.119 664.883 295.325 667.252 296.779V304.408H661V308H689V304.408ZM667.689 290.382C667.689 287.252 670.563 285.438 674.95 285.456C679.269 285.438 682.227 287.252 682.244 290.382C682.227 293.427 679.269 295.308 674.95 295.308C670.563 295.308 667.689 293.427 667.689 290.382ZM671.487 304.408V298.37C672.563 298.575 673.722 298.695 674.95 298.695C676.177 298.695 677.353 298.575 678.446 298.353V304.408H671.487Z" fill="white"/>
<path d="M703.558 281.9C698.65 281.883 695 284.783 695 288.833C695 292.85 698.65 295.717 703.558 295.734C708.396 295.717 712.028 292.85 712.046 288.833C712.028 284.783 708.396 281.883 703.558 281.9ZM699.331 288.833C699.296 286.65 701.112 285.366 703.558 285.366C705.968 285.366 707.732 286.65 707.749 288.833C707.732 291 705.968 292.283 703.558 292.3C701.095 292.283 699.296 291 699.331 288.833ZM699.786 300.733H716.691V302.6H699.855V311H722V307.667H704.221V305.7H721.127V297.467H699.786V300.733ZM716.656 296.2H721.127V281H716.656V296.2Z" fill="white"/>
<path d="M747 280H745V312H747V280Z" fill="#81A1FF"/>
<path d="M770.24 308H788V303.946H777.406V303.815L781.177 300.316C786.286 295.902 787.657 293.695 787.657 290.997C787.657 286.893 784.125 284 778.812 284C773.583 284 769.983 286.959 770 291.586H774.903C774.886 289.313 776.412 287.907 778.743 287.924C781.023 287.907 782.686 289.215 782.686 291.324C782.686 293.204 781.434 294.512 779.12 296.621L770.206 304.436L770.24 308Z" fill="white"/>
<path d="M796 308H801.249V300.177H805.797C811.641 300.177 815 296.878 815 292.088C815 287.365 811.694 284 805.937 284H796V308ZM801.249 296.166V288.077H804.958C808.072 288.094 809.594 289.701 809.576 292.088C809.594 294.508 808.072 296.166 804.958 296.166H801.249Z" fill="white"/>
<path d="M822 284V308H827.041V292.221H827.248L833.773 307.901H837.227L843.752 292.287H843.959V308H849V284H842.578L835.638 300.276H835.362L828.422 284H822Z" fill="white"/>
<path d="M150.364 78.6466V40.1325H142.091V54.487H138.955C139 54.1778 139 53.8245 139 53.4711V40.8833H122.136V48.3035H130.5V53.5152C130.5 55.5912 129.727 57.667 128.864 59.3012C126.455 63.8063 123.864 68.2673 121 72.684L127.955 76.8358C131.091 72.154 134.045 67.2514 136.636 62.393H142.091V78.6466H150.364ZM161 79V40H152.636V79H161Z" fill="white"/>
<path d="M203 79V61.649H168.4V79H190.993L194.017 75.8653V79H203ZM178.436 59.883C184.943 59.883 190.581 55.8653 190.581 49.4636C190.581 43.0177 184.943 39 178.436 39H176.144C169.637 39 164 43.0177 164 49.4636C164 55.8653 169.637 59.883 176.144 59.883H178.436ZM203 60.3245V40.0155H194.017V60.3245H203ZM194.017 71.8477H177.382V68.8455H194.017V71.8477ZM176.557 52.7749C174.632 52.7749 172.982 51.3178 172.982 49.4636C172.982 47.5651 174.632 46.1082 176.557 46.1082H178.023C179.948 46.1082 181.598 47.5651 181.598 49.4636C181.598 51.3178 179.948 52.7749 178.023 52.7749H176.557Z" fill="white"/>
<path d="M249.991 78.6466V40.1325H241.674V50.6886H237.286V58.4179H241.674V70.8289C239.343 66.5889 237.012 61.8188 235.413 57.402C234.91 56.077 234.636 55.2378 234.636 53.5152V48.2152H239.754V40.6625H220.286V48.2152H225.541V53.5152C225.541 55.2378 225.313 56.3861 224.81 57.7554C222.982 62.658 220.514 68.0464 218 72.8165L224.764 76.7033C226.866 72.9932 228.648 69.4156 230.386 65.573C232.031 69.0181 233.904 72.4631 235.916 75.9966L241.674 72.4631V78.6466H249.991ZM260 79V40H251.591V79H260Z" fill="white"/>
<path d="M291.318 56.0361C288.41 54.1892 285.636 52.1171 283.227 49.9549C282.5 49.3243 282.318 48.6937 282.318 47.8829H290.091V40.4504H265V47.8829H272.773C272.727 48.964 272.5 49.4144 271.545 50.2252C269.136 52.2973 266.182 54.0991 263 55.9009L267.364 62.3423C270.955 60.4505 274.636 58.2432 277.636 55.8559C280.41 58.063 283.227 60.0901 286.727 62.2072L291.318 56.0361ZM301.545 80V63.6486H267.682V71.036H292.637V80H301.545ZM301.545 62.2973V54.6847H306V47.1171H301.545V40H292.637V62.2973H301.545Z" fill="white"/>
<path d="M337.932 52.3774C343.329 52.3774 346.821 49.8251 346.821 45.6887C346.821 41.5523 343.329 39 337.932 39H318.068C312.671 39 309.179 41.5523 309.179 45.6887C309.179 49.8251 312.671 52.3774 318.068 52.3774H337.932ZM336.345 44.4565C337.297 44.4565 337.932 44.9846 337.932 45.6887C337.932 46.3928 337.297 46.9208 336.345 46.9208H319.655C318.703 46.9208 318.068 46.3928 318.068 45.6887C318.068 44.9846 318.703 44.4565 319.655 44.4565H336.345ZM348 59.4621V53.8295H308V59.4621H348ZM346.367 79V73.5434H318.975V72.1793H345.914V60.9142H310.086V66.1947H337.025V67.5148H310.086V79H346.367Z" fill="white"/>
<path d="M403 79V39.4036H393.883V61.5112H363V69.0448H372.721V79H382.303V69.0448H389.93L393.883 65.2332V79H403ZM380.953 59.3588C387.605 59.3588 391.558 54.9641 391.558 49.1794C391.558 43.3946 387.372 39 380.721 39H374.582C367.93 39 363.745 43.3946 363.745 49.1794C363.745 54.9641 367.93 59.3588 374.582 59.3588H380.953ZM375.558 51.8251C373.837 51.8251 372.86 50.5695 372.86 49.1794C372.86 47.7892 373.837 46.5337 375.558 46.5337H379.744C381.465 46.5337 382.442 47.7892 382.442 49.1794C382.442 50.5695 381.465 51.8251 379.744 51.8251H375.558Z" fill="white"/>
<path d="M424.591 64.4083C429.591 64.4083 432.728 61.0513 432.728 56.7096C432.728 52.3679 429.591 49.0109 424.591 49.0109H415.682C410.682 49.0109 407.546 52.3679 407.546 56.7096C407.546 61.0513 410.682 64.4083 415.682 64.4083H424.591ZM444.545 68.7053V58.0076H449V50.488H444.545V39.4771H435.637V68.7053H444.545ZM444.773 79V72.5545H419.091V66.0644H410.182V79H444.773ZM433.319 47.8024V41.8046H424.773V38H415.728V41.8046H407V47.8024H433.319ZM422.273 55.0535C423.318 55.0535 423.909 55.7249 423.909 56.7096C423.909 57.6943 423.318 58.3657 422.273 58.3657H418C416.955 58.3657 416.364 57.6943 416.364 56.7096C416.364 55.7249 416.955 55.0535 418 55.0535H422.273Z" fill="white"/>
<path d="M178.445 186.799C169.111 173.703 161.556 161.384 156.111 149.287C154.556 145.957 154 141.074 154 136.745V109.11H130.667V136.745C130.667 141.074 130.111 145.957 128.556 149.287C123.111 161.384 114.667 174.925 105 187.799L121.111 200.229C128.667 190.795 136.667 180.03 142.333 170.596C147.889 180.03 155.667 190.462 163.334 199.896L178.445 186.799ZM203 206V108H181.223V206H203Z" fill="#FFE43A"/>
<path d="M279.149 147.289C272.045 142.763 265.275 137.687 259.392 132.39C257.616 130.844 257.172 129.299 257.172 127.313H276.152V109.104H214.884V127.313H233.863C233.752 129.962 233.198 131.065 230.866 133.052C224.984 138.128 217.769 142.543 210 146.957L220.655 162.739C229.423 158.103 238.414 152.696 245.74 146.847C252.51 152.255 259.392 157.221 267.938 162.408L279.149 147.289ZM304.122 206V165.939H221.432V184.039H282.368V206H304.122ZM304.122 162.629V143.978H315V125.437H304.122V108H282.368V162.629H304.122Z" fill="#FFE43A"/>
<path d="M415 206V107.999H394.625V147.732H390.196V108.332H370.044V205.112H390.196V167.599H394.625V206H415ZM366.278 159.941C366.278 145.623 358.195 136.967 342.582 136.967C327.08 136.967 319.107 145.623 319.107 159.941V177.588C319.107 191.905 327.08 200.007 342.582 200.007C358.195 200.007 366.278 191.572 366.278 177.588V159.941ZM367.386 134.858V116.656H354.098V107H331.952V116.656H318V134.858H367.386ZM346.569 177.588C346.569 180.917 344.686 182.027 342.693 182.027C340.7 182.027 338.818 180.917 338.818 177.588V159.497C338.818 156.167 340.7 154.946 342.693 154.946C344.686 154.946 346.569 156.167 346.569 159.497V177.588Z" fill="#FFE43A"/>
<path d="M521 202V183.532H503.074V167.702C512.862 162.206 517.591 151.872 517.591 140.44C517.591 123.621 507.252 109 485.587 109H459.412C437.747 109 427.409 123.621 427.409 140.44C427.409 151.872 432.138 162.206 441.926 167.702V183.532H424V202H521ZM462.602 153.411C453.694 153.411 448.965 148.025 448.965 140.44C448.965 132.854 453.694 127.468 462.602 127.468H482.398C491.306 127.468 496.035 132.854 496.035 140.44C496.035 148.025 491.306 153.411 482.398 153.411H462.602ZM481.518 183.532H463.482V171.879H481.518V183.532Z" fill="#FFE43A"/>
<path d="M637.453 178.285V108.109H616.005V127.621H605.062C601.56 114.539 589.632 107 575.078 107C557.678 107 544 117.642 544 135.824C544 154.006 557.678 164.649 575.078 164.649C588.757 164.649 600.137 157.997 604.405 146.245H616.005V178.285H637.453ZM638 206V187.819H576.172V169.527H554.724V206H638ZM575.078 146.245C569.716 146.245 565.448 141.922 565.448 135.824C565.448 129.726 569.716 125.403 575.078 125.403C580.44 125.403 584.708 129.726 584.708 135.824C584.708 141.922 580.549 146.245 575.078 146.245Z" fill="#FFE43A"/>
<path d="M743 206V108H721.382V180.917H674.618V163.16H710.573V109.11H653V127.755H688.956V144.514H653V199.785H712.007L721.382 190.351V206H743Z" fill="#FFE43A"/>
<path d="M849 206V191.111H785.924V187.555H847.891V156.334H764.197V171H826.164V174.444H764.197V206H849ZM847.891 153.444V107.889H826.164V121.667H814.968C811.531 111.556 801.222 105 788.03 105H781.157C764.862 105 753 114.889 753 129.222C753 143.556 764.862 153.444 781.157 153.444H788.03C800.002 153.444 809.647 148.111 813.86 139.445H826.164V153.444H847.891ZM783.152 137.889C778.497 137.889 774.727 134 774.727 129.222C774.727 124.444 778.497 120.555 783.152 120.555H786.035C790.691 120.555 794.46 124.444 794.46 129.222C794.46 134 790.691 137.889 786.035 137.889H783.152Z" fill="#FFE43A"/>
<path d="M104 242H849" stroke="white" stroke-width="4"/>
</svg>
