<svg 
 xmlns="http://www.w3.org/2000/svg"
 xmlns:xlink="http://www.w3.org/1999/xlink"
 width="539px" height="189px">
<path fill-rule="evenodd"  fill="rgb(255, 255, 255)"
 d="M531.480,182.122 C529.145,184.279 526.364,185.898 523.136,186.977 C519.908,188.056 516.337,188.595 512.423,188.595 C508.852,188.595 505.521,188.022 502.431,186.875 C499.409,185.729 496.731,184.043 494.396,181.818 C492.061,179.661 490.172,176.962 488.730,173.726 C487.288,170.490 486.430,166.780 486.155,162.599 L492.130,162.599 C492.610,169.343 494.636,174.502 498.207,178.076 C501.778,181.717 506.689,183.537 512.938,183.537 C515.479,183.537 517.951,183.200 520.355,182.526 C522.758,181.919 524.887,180.840 526.742,179.289 C528.664,177.806 530.175,175.816 531.274,173.322 C532.442,170.826 533.025,167.758 533.025,164.117 C533.025,157.981 531.205,153.327 527.566,150.158 C523.926,146.921 518.878,145.303 512.423,145.303 L506.963,145.303 L506.963,140.245 L512.423,140.245 C514.964,140.245 517.333,139.908 519.531,139.234 C521.797,138.492 523.789,137.414 525.505,135.997 C527.222,134.582 528.561,132.828 529.523,130.738 C530.553,128.580 531.068,126.085 531.068,123.253 C531.068,120.825 530.725,118.566 530.038,116.475 C529.351,114.385 528.252,112.564 526.742,111.013 C525.299,109.463 523.411,108.248 521.076,107.372 C518.810,106.495 516.097,106.057 512.938,106.057 C500.920,106.057 494.671,112.868 494.190,126.490 L488.215,126.490 C488.353,122.848 488.971,119.477 490.069,116.375 C491.168,113.205 492.748,110.508 494.808,108.283 C496.868,105.989 499.409,104.202 502.431,102.922 C505.521,101.640 509.127,100.999 513.247,100.999 C516.063,100.999 518.878,101.405 521.694,102.214 C524.578,102.955 527.154,104.202 529.420,105.956 C531.686,107.709 533.506,110.002 534.880,112.835 C536.322,115.599 537.043,119.038 537.043,123.152 C537.043,124.770 536.802,126.490 536.322,128.310 C535.910,130.130 535.154,131.917 534.055,133.671 C533.025,135.424 531.617,137.076 529.832,138.627 C528.115,140.110 525.952,141.325 523.342,142.269 C526.158,143.010 528.561,144.123 530.553,145.606 C532.545,147.091 534.158,148.810 535.395,150.765 C536.631,152.653 537.523,154.710 538.073,156.935 C538.691,159.161 538.1000,161.420 538.1000,163.713 C538.1000,167.758 538.348,171.332 537.043,174.434 C535.738,177.468 533.884,180.031 531.480,182.122 ZM480.674,187.989 L428.653,187.989 C428.927,184.481 429.511,181.279 430.404,178.379 C431.297,175.480 432.498,172.782 434.009,170.287 C435.520,167.724 437.306,165.331 439.366,163.105 C441.495,160.880 443.898,158.689 446.577,156.531 L459.659,146.011 C461.582,144.460 463.368,142.943 465.016,141.460 C466.664,139.908 468.072,138.256 469.239,136.503 C470.475,134.750 471.437,132.862 472.124,130.839 C472.810,128.749 473.154,126.388 473.154,123.759 C473.154,121.398 472.776,119.173 472.021,117.083 C471.265,114.925 470.132,113.037 468.621,111.418 C467.110,109.800 465.188,108.518 462.853,107.574 C460.586,106.630 457.874,106.159 454.715,106.159 C448.671,106.159 443.967,107.945 440.602,111.519 C437.306,115.093 435.486,120.757 435.142,128.512 L428.962,128.512 C429.168,124.467 429.820,120.757 430.919,117.386 C432.018,114.014 433.632,111.115 435.760,108.687 C437.889,106.260 440.533,104.371 443.692,103.023 C446.851,101.674 450.560,100.999 454.818,100.999 C459.213,100.999 462.956,101.674 466.046,103.023 C469.205,104.304 471.746,106.023 473.669,108.181 C475.660,110.272 477.103,112.699 477.995,115.464 C478.888,118.229 479.334,121.061 479.334,123.961 C479.334,126.928 478.922,129.592 478.098,131.952 C477.343,134.311 476.141,136.605 474.493,138.830 C472.913,140.987 470.887,143.179 468.415,145.405 C466.012,147.562 463.162,149.956 459.865,152.586 L450.079,160.375 C448.843,161.386 447.504,162.532 446.062,163.814 C444.620,165.027 443.177,166.511 441.735,168.264 C440.362,170.017 439.091,172.108 437.924,174.536 C436.756,176.895 435.863,179.694 435.245,182.931 L480.674,182.931 L480.674,187.989 ZM396.388,100.999 C404.355,100.999 410.501,102.989 414.827,106.968 C419.154,110.946 421.317,117.116 421.317,125.478 L421.317,164.522 C421.317,172.884 419.154,179.053 414.827,183.032 C410.501,187.010 404.355,188.1000 396.388,188.1000 C388.353,188.1000 382.173,187.010 377.846,183.032 C373.520,179.121 371.356,172.985 371.356,164.623 L371.356,125.377 C371.356,117.016 373.520,110.879 377.846,106.968 C382.173,102.989 388.353,100.999 396.388,100.999 ZM377.331,125.377 L377.331,164.623 C377.331,168.197 377.777,171.232 378.670,173.726 C379.632,176.154 380.971,178.109 382.688,179.593 C384.405,181.143 386.396,182.223 388.662,182.829 C390.997,183.504 393.573,183.841 396.388,183.841 C399.135,183.841 401.676,183.504 404.011,182.829 C406.346,182.223 408.338,181.143 409.986,179.593 C411.703,178.109 413.008,176.154 413.900,173.726 C414.862,171.232 415.342,168.197 415.342,164.623 L415.342,125.377 C415.342,121.803 414.862,118.802 413.900,116.375 C413.008,113.879 411.703,111.890 409.986,110.407 C408.338,108.856 406.346,107.777 404.011,107.170 C401.676,106.495 399.135,106.159 396.388,106.159 C393.573,106.159 390.997,106.495 388.662,107.170 C386.396,107.777 384.405,108.856 382.688,110.407 C380.971,111.890 379.632,113.879 378.670,116.375 C377.777,118.802 377.331,121.803 377.331,125.377 ZM296.743,72.020 L313.478,72.020 L313.478,54.439 C310.955,53.774 308.663,52.642 306.605,51.043 C304.613,49.445 302.886,47.547 301.425,45.349 C299.964,43.086 298.835,40.588 298.038,37.858 C297.308,35.127 296.942,32.265 296.942,29.268 C296.942,25.738 297.474,22.408 298.536,19.278 C299.599,16.148 301.093,13.419 303.019,11.088 C304.945,8.690 307.236,6.826 309.892,5.493 C312.548,4.095 315.504,3.396 318.758,3.396 L363.085,3.396 C366.339,3.396 369.294,4.095 371.951,5.493 C374.673,6.826 376.998,8.690 378.924,11.088 C380.849,13.419 382.344,16.148 383.406,19.278 C384.469,22.408 384.1000,25.738 384.1000,29.268 C384.1000,32.265 384.601,35.127 383.805,37.858 C383.008,40.588 381.879,43.086 380.418,45.349 C379.023,47.547 377.297,49.445 375.238,51.043 C373.179,52.642 370.921,53.774 368.464,54.439 L368.464,72.020 L384.1000,72.020 L384.1000,84.406 L296.743,84.406 L296.743,72.020 ZM327.424,72.020 L354.519,72.020 L354.519,55.138 L327.424,55.138 L327.424,72.020 ZM321.248,42.952 L360.396,42.952 C362.056,42.952 363.517,42.585 364.779,41.853 C366.107,41.121 367.203,40.155 368.066,38.957 C368.995,37.691 369.693,36.226 370.158,34.561 C370.689,32.896 370.955,31.132 370.955,29.268 C370.955,27.469 370.689,25.738 370.158,24.073 C369.693,22.408 368.995,20.943 368.066,19.678 C367.203,18.412 366.107,17.414 364.779,16.682 C363.517,15.882 362.056,15.482 360.396,15.482 L321.248,15.482 C319.588,15.482 318.094,15.882 316.765,16.682 C315.504,17.414 314.408,18.412 313.478,19.678 C312.615,20.943 311.951,22.408 311.486,24.073 C311.021,25.738 310.789,27.469 310.789,29.268 C310.789,31.132 311.021,32.896 311.486,34.561 C311.951,36.226 312.615,37.691 313.478,38.957 C314.408,40.155 315.504,41.121 316.765,41.853 C318.094,42.585 319.588,42.952 321.248,42.952 ZM364.021,187.989 L311.1000,187.989 C312.275,184.481 312.858,181.279 313.751,178.379 C314.644,175.480 315.846,172.782 317.357,170.287 C318.867,167.724 320.653,165.331 322.713,163.105 C324.842,160.880 327.246,158.689 329.924,156.531 L343.007,146.011 C344.929,144.460 346.715,142.943 348.363,141.460 C350.011,139.908 351.419,138.256 352.587,136.503 C353.823,134.750 354.784,132.862 355.471,130.839 C356.158,128.749 356.501,126.388 356.501,123.759 C356.501,121.398 356.123,119.173 355.368,117.083 C354.612,114.925 353.479,113.037 351.969,111.418 C350.458,109.800 348.535,108.518 346.200,107.574 C343.934,106.630 341.221,106.159 338.062,106.159 C332.019,106.159 327.314,107.945 323.949,111.519 C320.653,115.093 318.833,120.757 318.490,128.512 L312.309,128.512 C312.515,124.467 313.167,120.757 314.266,117.386 C315.365,114.014 316.979,111.115 319.108,108.687 C321.237,106.260 323.881,104.371 327.040,103.023 C330.199,101.674 333.907,100.999 338.165,100.999 C342.560,100.999 346.303,101.674 349.393,103.023 C352.552,104.304 355.093,106.023 357.016,108.181 C359.008,110.272 360.450,112.699 361.343,115.464 C362.235,118.229 362.682,121.061 362.682,123.961 C362.682,126.928 362.270,129.592 361.446,131.952 C360.690,134.311 359.488,136.605 357.840,138.830 C356.261,140.987 354.235,143.179 351.763,145.405 C349.359,147.562 346.509,149.956 343.213,152.586 L333.426,160.375 C332.190,161.386 330.851,162.532 329.409,163.814 C327.967,165.027 326.525,166.511 325.082,168.264 C323.709,170.017 322.439,172.108 321.271,174.536 C320.104,176.895 319.211,179.694 318.593,182.931 L364.021,182.931 L364.021,187.989 ZM197.701,7.891 L215.034,7.891 L215.034,-0.000 L229.079,-0.000 L229.079,7.891 L246.611,7.891 L246.611,19.778 L197.701,19.778 L197.701,7.891 ZM199.893,43.651 C199.893,40.056 200.557,37.025 201.885,34.561 C203.279,32.031 205.039,29.1000 207.164,28.468 C209.289,26.870 211.647,25.705 214.237,24.972 C216.893,24.240 219.483,23.873 222.007,23.873 C224.597,23.873 227.220,24.240 229.876,24.972 C232.532,25.705 234.923,26.870 237.048,28.468 C239.173,29.1000 240.900,32.031 242.228,34.561 C243.622,37.025 244.320,40.056 244.320,43.651 L244.320,64.029 C244.320,67.624 243.622,70.688 242.228,73.218 C240.900,75.749 239.173,77.779 237.048,79.311 C234.923,80.910 232.532,82.076 229.876,82.808 C227.220,83.541 224.597,83.907 222.007,83.907 C219.483,83.907 216.893,83.541 214.237,82.808 C211.647,82.076 209.289,80.910 207.164,79.311 C205.039,77.779 203.279,75.749 201.885,73.218 C200.557,70.688 199.893,67.624 199.893,64.029 L199.893,43.651 ZM212.942,63.030 C212.942,64.695 213.208,66.093 213.739,67.225 C214.336,68.290 215.067,69.189 215.930,69.922 C216.860,70.588 217.856,71.087 218.919,71.420 C219.981,71.687 221.010,71.820 222.007,71.820 C223.003,71.820 224.032,71.687 225.095,71.420 C226.157,71.087 227.120,70.588 227.983,69.922 C228.913,69.189 229.677,68.290 230.274,67.225 C230.872,66.093 231.171,64.695 231.171,63.030 L231.171,44.650 C231.171,42.985 230.872,41.587 230.274,40.455 C229.677,39.323 228.913,38.423 227.983,37.757 C227.120,37.025 226.157,36.525 225.095,36.259 C224.032,35.993 223.003,35.859 222.007,35.859 C221.010,35.859 219.981,35.993 218.919,36.259 C217.856,36.525 216.860,37.025 215.930,37.757 C215.067,38.423 214.336,39.323 213.739,40.455 C213.208,41.587 212.942,42.985 212.942,44.650 L212.942,63.030 ZM289.345,3.396 L289.345,90.000 L275.997,90.000 L275.997,46.648 L265.936,46.648 L265.936,90.000 L252.588,90.000 L252.588,3.396 L265.936,3.396 L265.936,34.262 L275.997,34.262 L275.997,3.396 L289.345,3.396 ZM200.896,120.690 C200.896,117.578 201.413,114.803 202.448,112.367 C203.553,109.931 205.037,107.868 206.900,106.176 C208.763,104.484 210.937,103.198 213.422,102.319 C215.976,101.440 218.667,100.999 221.497,100.999 L244.065,100.999 C246.274,100.999 248.379,101.305 250.381,101.913 C252.451,102.455 254.349,103.266 256.074,104.349 C257.800,105.364 259.284,106.650 260.526,108.206 C261.837,109.762 262.838,111.522 263.528,113.484 L280.610,113.484 L280.610,100.999 L294.1000,100.999 L294.1000,141.497 L280.610,141.497 L280.610,125.867 L264.149,125.867 C263.597,128.100 262.666,130.130 261.354,131.957 C260.112,133.716 258.594,135.238 256.799,136.524 C255.074,137.742 253.107,138.690 250.898,139.367 C248.759,140.043 246.481,140.382 244.065,140.382 L221.497,140.382 C218.667,140.382 215.976,139.941 213.422,139.062 C210.937,138.115 208.763,136.795 206.900,135.103 C205.037,133.344 203.553,131.280 202.448,128.912 C201.413,126.476 200.896,123.735 200.896,120.690 ZM217.874,126.374 C219.599,127.457 221.670,127.999 224.085,127.999 L241.270,127.999 C243.686,127.999 245.791,127.490 247.585,126.476 C249.380,125.394 250.277,123.465 250.277,120.690 C250.277,117.984 249.380,116.089 247.585,115.006 C245.791,113.857 243.686,113.281 241.270,113.281 L224.085,113.281 C221.670,113.281 219.599,113.857 217.874,115.006 C216.217,116.089 215.389,117.984 215.389,120.690 C215.389,123.397 216.217,125.292 217.874,126.374 ZM279.885,157.332 C279.471,156.926 278.781,156.723 277.815,156.723 L206.382,156.723 L206.382,145.354 L284.440,145.354 C288.167,145.354 290.859,146.336 292.515,148.298 C294.172,150.193 294.1000,152.967 294.1000,156.621 L294.1000,172.354 L220.772,172.354 L220.772,174.485 C220.772,175.771 220.979,176.617 221.393,177.022 C221.877,177.429 222.601,177.632 223.568,177.632 L294.1000,177.632 L294.1000,188.1000 L216.942,188.1000 C213.215,188.1000 210.523,188.018 208.867,186.057 C207.211,184.161 206.382,181.387 206.382,177.733 L206.382,161.899 L280.610,161.899 L280.610,159.869 C280.610,158.584 280.368,157.738 279.885,157.332 ZM103.440,37.658 C106.628,37.192 109.351,36.360 111.609,35.160 C113.933,33.962 116.091,32.131 118.084,29.667 C119.478,27.935 120.673,25.938 121.670,23.673 C122.666,21.343 123.429,18.579 123.961,15.383 L103.839,15.383 L103.839,3.396 L158.227,3.396 L158.227,15.383 L138.504,15.383 C138.969,18.579 139.666,21.343 140.596,23.673 C141.592,25.938 142.821,27.935 144.282,29.667 C146.274,32.131 148.432,33.962 150.756,35.160 C153.081,36.360 155.837,37.192 159.024,37.658 L159.024,50.144 C152.583,49.345 147.004,47.613 142.289,44.950 C137.641,42.287 133.988,37.991 131.332,32.064 C128.410,38.057 124.492,42.386 119.578,45.050 C117.054,46.382 114.531,47.480 112.007,48.346 C109.484,49.145 106.628,49.745 103.440,50.144 L103.440,37.658 ZM173.169,70.122 C173.169,68.591 172.439,67.824 170.978,67.824 L107.425,67.824 L107.425,55.638 L177.253,55.638 C180.507,55.638 182.931,56.637 184.525,58.635 C186.185,60.566 187.015,63.196 187.015,66.526 L187.015,90.000 L173.169,90.000 L173.169,70.122 ZM180.162,101.000 L194.552,101.000 L194.552,188.1000 L180.162,188.1000 L180.162,101.000 ZM173.169,51.043 L173.169,3.396 L187.015,3.396 L187.015,20.677 L195.881,20.677 L195.881,32.863 L187.015,32.863 L187.015,51.043 L173.169,51.043 ZM145.585,114.093 C145.033,113.416 144.170,113.078 142.997,113.078 L103.864,113.078 L103.864,100.999 L150.243,100.999 C154.039,100.999 156.765,101.980 158.422,103.944 C160.078,105.838 160.906,108.612 160.906,112.266 L160.906,147.080 L118.254,147.080 L118.254,163.930 C118.254,165.688 118.530,166.906 119.082,167.584 C119.703,168.260 120.601,168.598 121.774,168.598 L160.906,168.598 L160.906,180.676 L114.527,180.676 C110.731,180.676 108.005,179.696 106.349,177.733 C104.692,175.838 103.864,173.064 103.864,169.410 L103.864,135.002 L146.517,135.002 L146.517,117.747 C146.517,115.987 146.206,114.769 145.585,114.093 ZM39.860,3.396 L39.860,34.062 C39.860,43.185 40.956,50.377 43.148,55.638 C46.468,63.762 52.611,69.089 61.576,71.620 L61.576,84.106 C54.205,82.442 48.029,79.644 43.048,75.716 C40.923,73.984 38.964,72.086 37.171,70.021 C35.444,67.958 33.950,65.660 32.688,63.130 C30.165,68.324 26.778,72.519 22.528,75.716 C17.547,79.644 11.371,82.442 3.1000,84.106 L3.1000,71.620 C12.766,69.156 18.842,63.862 22.229,55.738 C24.553,50.144 25.715,42.918 25.715,34.062 L25.715,3.396 L39.860,3.396 ZM81.200,3.396 L95.046,3.396 L95.046,90.000 L81.200,90.000 L81.200,3.396 ZM63.461,130.130 C62.978,133.040 62.115,135.679 60.873,138.047 C59.700,140.416 58.216,142.445 56.421,144.137 C54.627,145.829 52.591,147.148 50.313,148.096 C48.036,149.043 45.655,149.516 43.170,149.516 L20.602,149.516 C17.772,149.516 15.080,148.907 12.526,147.689 C10.042,146.471 7.868,144.813 6.004,142.716 C4.141,140.551 2.657,137.980 1.553,135.002 C0.518,132.025 -0.000,128.776 -0.000,125.259 C-0.000,121.672 0.518,118.390 1.553,115.413 C2.657,112.435 4.141,109.897 6.004,107.800 C7.868,105.635 10.042,103.977 12.526,102.827 C15.080,101.609 17.772,100.999 20.602,100.999 L43.170,100.999 C47.863,100.999 52.004,102.523 55.593,105.567 C59.182,108.612 61.632,112.706 62.943,117.849 L79.714,117.849 L79.714,100.999 L94.104,100.999 L94.104,188.1000 L15.736,188.1000 C14.079,188.1000 12.596,188.695 11.284,188.086 C10.042,187.477 8.972,186.631 8.075,185.549 C7.247,184.533 6.591,183.349 6.108,181.996 C5.694,180.710 5.487,179.357 5.487,177.936 L5.487,156.317 L19.980,156.317 L19.980,174.079 C19.980,174.824 20.118,175.399 20.394,175.804 C20.740,176.211 21.326,176.414 22.154,176.414 L79.714,176.414 L79.714,130.130 L63.461,130.130 ZM46.690,116.529 C44.895,114.364 42.790,113.281 40.375,113.281 L23.190,113.281 C20.774,113.281 18.704,114.364 16.978,116.529 C15.322,118.626 14.493,121.537 14.493,125.259 C14.493,129.048 15.322,131.991 16.978,134.089 C18.704,136.118 20.774,137.134 23.190,137.134 L40.375,137.134 C42.790,137.134 44.895,136.118 46.690,134.089 C48.484,131.991 49.381,129.048 49.381,125.259 C49.381,121.537 48.484,118.626 46.690,116.529 Z"/>
</svg>