<svg width="31" height="33" viewBox="0 0 31 33" fill="none" xmlns="http://www.w3.org/2000/svg">
<path d="M15.6399 31.3201C6.59993 31.3201 0.679932 25.4001 0.679932 15.9201C0.679932 6.44008 6.59993 0.0800781 15.6399 0.0800781C24.6799 0.0800781 30.6399 6.44008 30.6399 15.9201C30.6399 19.8801 29.2399 23.4401 26.9199 26.1201L29.5199 29.2801L24.9199 32.8401L22.3599 29.7201C20.3599 30.7601 18.0399 31.3201 15.6399 31.3201ZM15.6399 23.8401C16.2399 23.8401 16.8399 23.7601 17.3599 23.6401L13.4399 18.8401L18.0399 15.3201L21.6399 19.6801C21.9599 18.7601 22.1199 17.6801 22.1199 16.5201V14.9201C22.1199 10.4401 19.5599 7.72008 15.6399 7.72008C11.7199 7.72008 9.15993 10.4401 9.15993 14.9201V16.5201C9.15993 21.0801 11.7199 23.8401 15.6399 23.8401Z" fill="#26BBFF"/>
</svg>
