<svg width="1240" height="992" viewBox="0 0 1240 992" fill="none" xmlns="http://www.w3.org/2000/svg">
<path fill-rule="evenodd" clip-rule="evenodd" d="M121.928 87.5061C120.62 93.8545 114.75 110.188 96.0238 119.025L88.5269 110.571L75.862 123.3C61.251 123.108 47.5653 116.09 38.8561 104.318C40.196 104.733 41.5997 104.988 43.0033 105.084C45.0769 105.116 47.3101 104.35 47.3101 100.873V66.5148C47.4058 63.3885 44.9812 60.7725 41.8549 60.6768C41.2807 60.6768 40.7383 60.7087 40.196 60.8682C34.3261 62.2081 29.6366 76.8509 29.6366 76.8509C29.509 63.1651 35.4108 50.1174 45.7469 41.1849C54.4879 33.7838 63.0056 31.2317 69.4817 30.2108C63.0694 33.8476 59.4646 39.8132 59.4646 44.8217C59.4646 52.829 64.3136 51.9039 65.7492 50.7235V97.1403C66.0044 97.7146 66.2915 98.2888 66.6743 98.7673C67.9823 100.554 70.0559 101.638 72.289 101.607C77.138 101.607 83.4226 96.0557 83.4226 96.0557V58.4756C83.4226 54.6474 80.5515 50.0217 77.6485 48.4585C77.6485 48.4585 82.976 47.5334 87.1232 50.6597C87.8889 49.7027 88.7183 48.8094 89.5797 47.9481C99.182 38.5052 108.242 35.8574 115.771 34.5175C115.771 34.5175 102.053 45.3003 102.053 59.7517C102.053 70.5025 102.34 96.7256 102.34 96.7256C107.445 101.638 115.005 94.5563 121.864 87.5061H121.928ZM76.5 0C118.738 0 153 34.2304 153 76.5C153 118.738 118.77 153 76.5 153C34.2623 153 0 118.738 0 76.5C0 34.2623 34.2304 0 76.5 0Z" fill="white"/>
<path d="M1032.46 515.076H990.725V305.068H965.351V266.673H1057.83V305.068H1032.46V515.076Z" fill="white"/>
<path d="M910.483 519.083C894.234 519.083 881.769 515.076 873.089 507.063C864.63 498.828 860.401 486.474 860.401 470.003V424.93H901.134V470.003C901.134 478.684 904.25 483.024 910.483 483.024C912.931 483.024 914.823 482.245 916.159 480.687C917.717 478.907 918.496 476.681 918.496 474.01V426.599C918.496 420.59 916.938 416.138 913.822 413.244C910.928 410.128 904.473 405.899 894.457 400.557C882.215 393.879 873.534 386.979 868.414 379.857C863.518 372.734 861.069 362.718 861.069 349.808V307.072C861.069 293.271 865.521 282.476 874.424 274.686C883.328 266.895 895.125 263 909.815 263C925.619 263 937.749 267.34 946.208 276.021C954.888 284.479 959.117 296.388 958.895 311.746V352.813H919.497V311.746C919.497 303.288 916.381 299.059 910.149 299.059C905.252 299.059 902.804 301.841 902.804 307.406V349.14C902.804 354.482 904.028 358.6 906.476 361.493C909.147 364.387 913.488 367.615 919.497 371.176C934.856 378.744 945.429 386.423 951.216 394.213C957.225 401.781 960.23 412.354 960.23 425.932V474.344C960.23 488.366 955.667 499.384 946.541 507.397C937.415 515.188 925.396 519.083 910.483 519.083Z" fill="white"/>
<path d="M852.242 515.076H772.112V266.673H851.24V303.399H813.846V369.84H846.9V405.231H813.846V477.682H852.242V515.076Z" fill="white"/>
<path d="M726.465 515.076H684.73V266.673H762.857V303.733H726.465V374.181H758.517V411.241H726.465V515.076Z" fill="white"/>
<path d="M624.549 515.076H549.093V266.673H590.828V476.681H624.549V515.076Z" fill="white"/>
<path d="M541.894 515.076H499.492L496.153 478.016H471.446L468.107 515.076H425.705L453.751 266.673H513.514L541.894 515.076ZM481.796 357.487L474.451 442.959H493.148L485.803 357.487L484.133 324.099H483.132L481.796 357.487Z" fill="white"/>
<path d="M420.551 515.076H340.42V266.673H419.549V303.399H382.155V369.84H415.209V405.231H382.155V477.682H420.551V515.076Z" fill="white"/>
<path d="M230.867 515.076V266.673H281.283C297.531 266.673 309.773 270.457 318.009 278.024C326.245 285.592 330.363 296.499 330.363 310.744V365.166C330.363 383.863 322.683 395.771 307.325 400.891V401.225C315.338 403.228 320.903 407.346 324.019 413.578C327.358 419.811 329.027 428.491 329.027 439.62L329.361 485.028C329.806 498.605 330.919 508.622 332.7 515.076H291.299C289.741 507.286 288.851 495.6 288.628 480.019L288.294 433.277C288.072 428.825 287.07 425.486 285.289 423.261C283.509 421.035 280.726 419.922 276.942 419.922H272.602V515.076H230.867ZM278.612 388.204C285.512 388.204 288.962 383.307 288.962 373.513V315.752C288.962 306.404 285.734 301.73 279.279 301.73H272.602V388.204H278.612Z" fill="white"/>
<path d="M152.584 515.076H112.185V266.673H154.253L173.618 364.498L178.96 400.891H179.628L176.957 355.818V266.673H217.356V515.076H175.288L156.257 417.585L150.915 381.526H149.913L152.584 426.599V515.076Z" fill="white"/>
<path d="M50.0814 519.083C33.165 519.083 20.589 514.631 12.3534 505.728C4.11781 496.825 0 483.136 0 464.661V266.673H41.4006V468.668C41.4006 472.897 42.1797 476.124 43.7378 478.35C45.2959 480.576 47.4104 481.689 50.0814 481.689C52.7524 481.689 54.7557 480.576 56.0912 478.35C57.6493 476.124 58.4283 472.897 58.4283 468.668V266.673H99.829V464.327C99.829 482.802 95.7112 496.602 87.4755 505.728C79.4625 514.631 66.9978 519.083 50.0814 519.083Z" fill="white"/>
<path d="M596.281 700.026C582.259 700.026 573.009 695.254 568.532 685.71C567.353 683 566.528 679.759 566.057 675.989C565.704 672.1 565.527 666.091 565.527 657.96H584.792C584.792 664.323 584.851 668.683 584.969 671.04C585.205 673.396 585.617 675.223 586.206 676.519C587.856 680.172 590.979 681.998 595.574 681.998C600.287 681.998 603.528 680.172 605.295 676.519C605.767 675.341 606.061 673.75 606.179 671.747C606.297 669.744 606.356 665.325 606.356 658.491C606.356 652.01 606.238 647.532 606.002 645.058C605.767 642.583 605.354 640.58 604.765 639.048C603.469 636.338 601.289 634.394 598.225 633.216C595.279 632.037 591.391 631.448 586.56 631.448C583.85 631.448 580.845 631.625 577.546 631.978C574.364 632.214 571.36 632.567 568.532 633.039L575.071 573.121H624.738L621.556 591.856H592.216L589.565 616.424C593.1 615.835 596.281 615.541 599.109 615.541C605.236 615.541 610.421 616.719 614.663 619.076C618.905 621.314 622.027 624.673 624.031 629.15C625.091 631.625 625.798 634.688 626.152 638.341C626.623 641.876 626.859 648.18 626.859 657.253C626.859 663.734 626.741 668.683 626.505 672.1C626.387 675.517 626.152 678.227 625.798 680.231C625.445 682.116 624.855 683.883 624.031 685.533C619.671 695.195 610.421 700.026 596.281 700.026Z" fill="white"/>
<path d="M498.543 697.375L529.298 636.043C532.008 630.387 533.893 626.263 534.954 623.671C536.132 620.961 536.957 618.31 537.428 615.717C538.017 613.125 538.312 610.061 538.312 606.526C538.312 602.402 538.194 599.633 537.958 598.219C537.841 596.805 537.605 595.568 537.251 594.508C536.544 592.858 535.425 591.621 533.893 590.796C532.479 589.971 530.712 589.559 528.591 589.559C526.234 589.559 524.29 590.03 522.758 590.973C521.344 591.797 520.225 593.094 519.4 594.861C518.928 596.039 518.575 597.866 518.339 600.34C518.221 602.697 518.163 606.821 518.163 612.713H498.72C498.72 604.7 498.897 598.867 499.25 595.215C499.722 591.444 500.606 588.086 501.902 585.14C504.023 580.427 507.381 576.892 511.976 574.535C516.572 572.178 522.228 571 528.944 571C535.778 571 541.493 572.296 546.089 574.888C550.684 577.363 554.101 581.016 556.34 585.847C557.283 588.086 557.931 590.56 558.284 593.27C558.638 595.98 558.815 599.751 558.815 604.582C558.815 610.945 558.108 616.719 556.694 621.904C555.398 627.088 553.1 632.862 549.8 639.225C544.498 650.655 537.899 664.029 530.005 679.347H559.168V697.905H498.543V697.375Z" fill="white"/>
<path d="M457.947 700.026C443.924 700.026 434.38 694.429 429.313 683.235C428.135 680.525 427.251 677.52 426.662 674.221C426.073 670.922 425.66 666.385 425.425 660.611C425.189 654.72 425.071 646.354 425.071 635.513C425.071 624.673 425.189 616.365 425.425 610.592C425.66 604.7 426.073 600.105 426.662 596.805C427.251 593.506 428.135 590.501 429.313 587.791C434.38 576.597 443.924 571 457.947 571C471.969 571 481.454 576.597 486.403 587.791C487.581 590.501 488.465 593.506 489.054 596.805C489.761 600.105 490.233 604.7 490.468 610.592C490.704 616.365 490.822 624.673 490.822 635.513C490.822 646.354 490.704 654.72 490.468 660.611C490.233 666.385 489.761 670.922 489.054 674.221C488.465 677.52 487.581 680.525 486.403 683.235C481.454 694.429 471.969 700.026 457.947 700.026ZM457.947 681.291C460.539 681.291 462.601 680.82 464.133 679.877C465.782 678.817 467.079 677.285 468.021 675.282C468.61 673.985 469.023 672.277 469.258 670.156C469.494 668.035 469.612 664.029 469.612 658.137C469.73 652.128 469.789 644.586 469.789 635.513C469.789 626.44 469.73 618.958 469.612 613.066C469.612 607.057 469.494 602.991 469.258 600.871C469.023 598.75 468.61 597.041 468.021 595.745C467.079 593.742 465.782 592.269 464.133 591.326C462.601 590.266 460.539 589.735 457.947 589.735C452.88 589.735 449.522 591.738 447.872 595.745C447.283 597.041 446.87 598.75 446.635 600.871C446.399 602.991 446.222 607.057 446.104 613.066C445.987 618.958 445.928 626.44 445.928 635.513C445.928 644.586 445.987 652.069 446.104 657.96C446.222 663.852 446.399 667.917 446.635 670.156C446.87 672.277 447.283 673.985 447.872 675.282C449.522 679.288 452.88 681.291 457.947 681.291Z" fill="white"/>
<path d="M356.316 697.375L387.07 636.043C389.78 630.387 391.666 626.263 392.726 623.671C393.904 620.961 394.729 618.31 395.201 615.717C395.79 613.125 396.084 610.061 396.084 606.526C396.084 602.402 395.966 599.633 395.731 598.219C395.613 596.805 395.377 595.568 395.024 594.508C394.317 592.858 393.197 591.621 391.666 590.796C390.252 589.971 388.484 589.559 386.363 589.559C384.007 589.559 382.062 590.03 380.53 590.973C379.116 591.797 377.997 593.094 377.172 594.861C376.701 596.039 376.347 597.866 376.112 600.34C375.994 602.697 375.935 606.821 375.935 612.713H356.493C356.493 604.7 356.669 598.867 357.023 595.215C357.494 591.444 358.378 588.086 359.674 585.14C361.795 580.427 365.153 576.892 369.749 574.535C374.344 572.178 380 571 386.717 571C393.551 571 399.266 572.296 403.861 574.888C408.457 577.363 411.874 581.016 414.113 585.847C415.055 588.086 415.703 590.56 416.057 593.27C416.41 595.98 416.587 599.751 416.587 604.582C416.587 610.945 415.88 616.719 414.466 621.904C413.17 627.088 410.872 632.862 407.573 639.225C402.271 650.655 395.672 664.029 387.777 679.347H416.941V697.905H356.316V697.375Z" fill="white"/>
<path d="M290.463 573.121H310.966V679.17H330.409V697.905H290.463V573.121Z" fill="white"/>
<path d="M246.664 700.026C235.47 700.026 227.34 697.493 222.273 692.426C217.206 687.359 214.673 679.465 214.673 668.742V573.121H235.176V668.035C235.176 672.513 236.059 675.871 237.827 678.11C239.712 680.231 242.658 681.291 246.664 681.291C250.788 681.291 253.734 680.231 255.502 678.11C257.387 675.871 258.33 672.513 258.33 668.035V573.121H278.833V668.742C278.833 679.347 276.299 687.242 271.232 692.426C266.166 697.493 257.976 700.026 246.664 700.026Z" fill="white"/>
<path d="M168.717 700.026C161.647 700.026 155.579 698.73 150.512 696.138C145.563 693.428 141.733 689.48 139.023 684.296C137.373 681.586 136.136 678.522 135.311 675.105C134.487 671.57 133.838 666.798 133.367 660.788C133.014 654.661 132.837 646.236 132.837 635.513C132.837 625.262 132.955 617.308 133.19 611.652C133.544 605.996 134.015 601.577 134.604 598.396C135.194 595.215 136.077 592.269 137.256 589.559C139.966 583.549 143.913 578.954 149.098 575.772C154.4 572.591 160.94 571 168.717 571C176.494 571 182.975 572.591 188.159 575.772C193.462 578.954 197.468 583.549 200.178 589.559C201.356 592.269 202.24 595.215 202.829 598.396C203.418 601.577 203.831 605.996 204.067 611.652C204.42 617.308 204.597 625.262 204.597 635.513C204.597 645.765 204.42 653.718 204.067 659.374C203.831 665.03 203.418 669.449 202.829 672.63C202.24 675.812 201.356 678.758 200.178 681.468C197.468 687.477 193.462 692.073 188.159 695.254C182.975 698.436 176.494 700.026 168.717 700.026ZM168.717 680.938C174.844 680.938 179.027 678.345 181.266 673.161C181.855 671.747 182.268 670.038 182.503 668.035C182.857 666.032 183.092 662.261 183.21 656.723C183.328 651.185 183.387 644.115 183.387 635.513C183.387 626.911 183.328 619.842 183.21 614.303C183.092 608.765 182.857 604.995 182.503 602.991C182.268 600.988 181.855 599.28 181.266 597.866C179.027 592.681 174.844 590.089 168.717 590.089C162.59 590.089 158.407 592.681 156.168 597.866C155.579 599.28 155.107 600.988 154.754 602.991C154.518 604.995 154.341 608.765 154.223 614.303C154.106 619.842 154.047 626.911 154.047 635.513C154.047 644.115 154.106 651.185 154.223 656.723C154.341 662.261 154.518 666.032 154.754 668.035C155.107 670.038 155.579 671.747 156.168 673.161C158.407 678.345 162.59 680.938 168.717 680.938Z" fill="white"/>
<path d="M76.6045 573.121H124.68V591.68H97.1073V622.787H124.15V641.169H97.1073V679.347H124.68V697.905H76.6045V573.121Z" fill="white"/>
<path d="M34.9915 700.026C27.3324 700.026 21.0873 698.789 16.2561 696.315C11.425 693.722 7.94896 690.07 5.82798 685.356C5.00315 683.707 4.41399 682.057 4.06049 680.407C3.70699 678.64 3.41241 676.224 3.17675 673.161C3.05892 670.097 3 665.619 3 659.728H24.7401C24.7401 666.326 24.799 670.627 24.9168 672.63C25.0346 674.516 25.3292 675.989 25.8006 677.049C27.4502 680.584 30.6317 682.352 35.345 682.352C37.7016 682.352 39.7048 681.939 41.3544 681.114C43.0041 680.289 44.1824 679.052 44.8894 677.403C45.2429 676.46 45.4786 675.164 45.5964 673.514C45.7142 671.864 45.7731 669.39 45.7731 666.091C45.7731 662.438 45.6553 659.787 45.4196 658.137C45.184 656.37 44.7716 654.779 44.1824 653.365C43.2397 651.126 41.649 649.3 39.4102 647.886C37.1714 646.472 34.6969 645.175 31.9868 643.997C29.2766 642.819 27.5091 642.053 26.6843 641.699C21.4997 639.225 17.3166 636.75 14.1352 634.276C10.9537 631.684 8.59704 628.679 7.06522 625.262C5.88689 622.905 5.12098 620.254 4.76748 617.308C4.41399 614.244 4.23724 609.885 4.23724 604.229C4.23724 599.044 4.41399 595.215 4.76748 592.74C5.12098 590.148 5.82798 587.673 6.88847 585.317C9.00945 580.721 12.4266 577.186 17.1399 574.712C21.8532 572.237 27.6859 571 34.638 571C48.66 571 57.792 575.713 62.034 585.14C62.741 586.907 63.2712 588.616 63.6247 590.266C64.0961 591.797 64.3906 594.272 64.5085 597.689C64.6263 601.106 64.6852 605.289 64.6852 610.238H44.0057C44.0057 603.875 43.9467 599.692 43.8289 597.689C43.7111 595.686 43.4165 594.154 42.9452 593.094C41.5312 589.912 38.6443 588.321 34.2845 588.321C32.0457 588.321 30.1604 588.734 28.6285 589.559C27.2145 590.383 26.213 591.562 25.6238 593.094C25.3881 594.036 25.2114 595.215 25.0936 596.629C24.9757 598.043 24.9168 600.222 24.9168 603.168C24.9168 606.703 24.9757 609.237 25.0936 610.768C25.3292 612.3 25.7416 613.773 26.3308 615.187C27.0378 616.719 28.0983 618.074 29.5123 619.252C31.0441 620.313 33.0472 621.432 35.5217 622.611C37.9962 623.671 40.5885 624.732 43.2987 625.792C49.1903 628.502 53.7857 631.094 57.085 633.569C60.5022 636.043 62.9767 639.048 64.5085 642.583C65.6868 645.175 66.4527 647.886 66.8062 650.714C67.1597 653.542 67.3365 658.255 67.3365 664.853C67.3365 670.863 67.1597 675.164 66.8062 677.756C66.5705 680.231 65.8636 682.705 64.6852 685.18C62.4464 690.011 58.7936 693.722 53.7268 696.315C48.66 698.789 42.4149 700.026 34.9915 700.026Z" fill="white"/>
<path d="M39.781 832.983C39.781 836.968 38.439 840.079 35.755 842.316C33.071 844.512 29.5737 845.61 25.263 845.61C20.9523 845.61 17.4347 844.512 14.71 842.316C12.026 840.079 10.684 836.968 10.684 832.983C10.684 830.624 11.3143 828.51 12.575 826.639C13.8357 824.768 15.564 823.345 17.76 822.369C15.8487 821.434 14.344 820.112 13.246 818.404C12.1887 816.696 11.66 814.805 11.66 812.731C11.66 808.868 12.9003 805.879 15.381 803.764C17.9023 801.609 21.1963 800.531 25.263 800.531C29.289 800.531 32.5423 801.609 35.023 803.764C37.5443 805.919 38.805 808.908 38.805 812.731C38.805 814.805 38.256 816.696 37.158 818.404C36.1007 820.112 34.596 821.454 32.644 822.43C34.8807 823.406 36.6293 824.809 37.89 826.639C39.1507 828.469 39.781 830.584 39.781 832.983ZM31.058 813.036C31.058 811.165 30.5293 809.64 29.472 808.461C28.4553 807.282 27.0523 806.692 25.263 806.692C23.433 806.692 21.9893 807.261 20.932 808.4C19.8747 809.539 19.346 811.084 19.346 813.036C19.346 814.947 19.8747 816.493 20.932 817.672C21.9893 818.811 23.433 819.38 25.263 819.38C27.0523 819.38 28.4553 818.811 29.472 817.672C30.5293 816.493 31.058 814.947 31.058 813.036ZM32.034 832.556C32.034 830.441 31.4037 828.754 30.143 827.493C28.8823 826.232 27.2353 825.602 25.202 825.602C23.128 825.602 21.481 826.232 20.261 827.493C19.041 828.754 18.431 830.441 18.431 832.556C18.431 834.671 19.041 836.338 20.261 837.558C21.481 838.778 23.1483 839.388 25.263 839.388C27.3777 839.388 29.0247 838.778 30.204 837.558C31.424 836.338 32.034 834.671 32.034 832.556ZM83.9712 827.127H76.8342V825.541H67.9282V821.149H76.8342V797.481H83.9712V827.127ZM42.0032 815.354C48.7539 815.354 54.6099 815.313 59.5712 815.232C64.5325 815.11 69.3312 814.825 73.9672 814.378L74.3332 818.953C70.9579 819.441 66.5862 819.868 61.2182 820.234V827.127H54.0812V820.478C50.9905 820.559 48.7335 820.6 47.3102 820.6L42.7962 820.539L42.0032 815.354ZM83.9712 840.608H56.3382V843.109H85.1912V848.294H49.2012V835.85H76.8952V833.532H49.0182V828.591H83.9712V840.608ZM57.8632 798.213C61.6045 798.213 64.6139 798.925 66.8912 800.348C69.1685 801.731 70.3072 803.601 70.3072 805.96C70.3072 808.278 69.1685 810.128 66.8912 811.511C64.6139 812.894 61.6045 813.585 57.8632 813.585C54.0812 813.585 51.0515 812.894 48.7742 811.511C46.4969 810.128 45.3582 808.278 45.3582 805.96C45.3582 803.601 46.4969 801.731 48.7742 800.348C51.0922 798.925 54.1219 798.213 57.8632 798.213ZM57.8632 803.093C56.0332 803.093 54.6099 803.337 53.5932 803.825C52.5765 804.313 52.0682 805.025 52.0682 805.96C52.0682 806.814 52.5765 807.485 53.5932 807.973C54.6505 808.461 56.0739 808.705 57.8632 808.705C59.6525 808.705 61.0555 808.461 62.0722 807.973C63.1295 807.485 63.6582 806.814 63.6582 805.96C63.6582 805.025 63.1499 804.313 62.1332 803.825C61.1165 803.337 59.6932 803.093 57.8632 803.093ZM89.4412 839.693L103.715 824.199C105.952 821.759 107.497 819.746 108.351 818.16C109.246 816.533 109.693 814.988 109.693 813.524C109.693 811.45 109.144 809.803 108.046 808.583C106.948 807.322 105.423 806.692 103.471 806.692C101.194 806.692 99.4249 807.424 98.1642 808.888C96.9442 810.352 96.3342 812.263 96.3342 814.622H88.5872C88.5872 812.019 89.1769 809.661 90.3562 807.546C91.5762 805.391 93.3249 803.683 95.6022 802.422C97.8795 801.161 100.543 800.531 103.593 800.531C108.026 800.531 111.442 801.609 113.841 803.764C116.281 805.919 117.501 808.908 117.501 812.731C117.501 815.334 116.729 817.916 115.183 820.478C113.638 823.04 111.34 825.907 108.29 829.079L99.2622 838.778H119.087V845H89.4412V839.693ZM150.223 801.141V807.668H132.777L131.557 817.916C132.33 817.469 133.306 817.082 134.485 816.757C135.705 816.391 136.986 816.208 138.328 816.208C142.517 816.208 145.791 817.509 148.149 820.112C150.508 822.715 151.687 826.314 151.687 830.909C151.687 833.634 151.138 836.114 150.04 838.351C148.983 840.588 147.356 842.357 145.16 843.658C142.964 844.959 140.28 845.61 137.108 845.61C134.587 845.61 132.249 845.122 130.093 844.146C127.938 843.129 126.189 841.686 124.847 839.815C123.505 837.904 122.773 835.626 122.651 832.983H130.215C130.419 835.016 131.13 836.602 132.35 837.741C133.57 838.839 135.156 839.388 137.108 839.388C139.345 839.388 141.033 838.595 142.171 837.009C143.351 835.423 143.94 833.288 143.94 830.604C143.94 828.083 143.29 826.07 141.988 824.565C140.687 823.02 138.796 822.247 136.315 822.247C134.811 822.247 133.611 822.471 132.716 822.918C131.822 823.325 130.947 823.955 130.093 824.809L123.871 823.284L126.311 801.141H150.223ZM167.94 798.945C170.461 798.945 172.718 799.453 174.711 800.47C176.744 801.446 178.33 802.829 179.469 804.618C180.648 806.407 181.238 808.42 181.238 810.657C181.238 812.934 180.648 814.968 179.469 816.757C178.33 818.506 176.744 819.868 174.711 820.844C172.718 821.82 170.461 822.308 167.94 822.308C165.418 822.308 163.141 821.82 161.108 820.844C159.115 819.868 157.529 818.485 156.35 816.696C155.211 814.907 154.642 812.894 154.642 810.657C154.642 808.42 155.211 806.407 156.35 804.618C157.529 802.829 159.135 801.446 161.169 800.47C163.202 799.453 165.459 798.945 167.94 798.945ZM167.94 805.045C166.028 805.045 164.483 805.553 163.304 806.57C162.165 807.546 161.596 808.908 161.596 810.657C161.596 812.406 162.165 813.788 163.304 814.805C164.483 815.822 166.028 816.33 167.94 816.33C169.851 816.33 171.376 815.822 172.515 814.805C173.694 813.788 174.284 812.406 174.284 810.657C174.284 808.908 173.694 807.546 172.515 806.57C171.376 805.553 169.851 805.045 167.94 805.045ZM195.451 823.04H188.192V797.42H195.451V823.04ZM195.451 839.144H169.16V842.194H196.671V848.05H162.206V833.715H188.253V830.787H162.023V825.053H195.451V839.144ZM203.117 823.04C203.117 818.526 203.727 814.317 204.947 810.413C206.167 806.509 207.712 803.154 209.583 800.348C211.453 797.542 213.385 795.346 215.378 793.76L219.282 797.359C217.736 798.782 216.211 800.775 214.707 803.337C213.243 805.858 212.023 808.827 211.047 812.243C210.071 815.618 209.583 819.197 209.583 822.979C209.583 826.964 210.071 830.706 211.047 834.203C212.023 837.66 213.243 840.669 214.707 843.231C216.211 845.793 217.736 847.826 219.282 849.331L215.378 852.93C213.344 851.303 211.392 849.087 209.522 846.281C207.692 843.475 206.167 840.079 204.947 836.094C203.727 832.109 203.117 827.757 203.117 823.04ZM263.314 827.127H256.177V825.541H247.271V821.149H256.177V797.481H263.314V827.127ZM221.346 815.354C228.096 815.354 233.952 815.313 238.914 815.232C243.875 815.11 248.674 814.825 253.31 814.378L253.676 818.953C250.3 819.441 245.929 819.868 240.561 820.234V827.127H233.424V820.478C230.333 820.559 228.076 820.6 226.653 820.6L222.139 820.539L221.346 815.354ZM263.314 840.608H235.681V843.109H264.534V848.294H228.544V835.85H256.238V833.532H228.361V828.591H263.314V840.608ZM237.206 798.213C240.947 798.213 243.956 798.925 246.234 800.348C248.511 801.731 249.65 803.601 249.65 805.96C249.65 808.278 248.511 810.128 246.234 811.511C243.956 812.894 240.947 813.585 237.206 813.585C233.424 813.585 230.394 812.894 228.117 811.511C225.839 810.128 224.701 808.278 224.701 805.96C224.701 803.601 225.839 801.731 228.117 800.348C230.435 798.925 233.464 798.213 237.206 798.213ZM237.206 803.093C235.376 803.093 233.952 803.337 232.936 803.825C231.919 804.313 231.411 805.025 231.411 805.96C231.411 806.814 231.919 807.485 232.936 807.973C233.993 808.461 235.416 808.705 237.206 808.705C238.995 808.705 240.398 808.461 241.415 807.973C242.472 807.485 243.001 806.814 243.001 805.96C243.001 805.025 242.492 804.313 241.476 803.825C240.459 803.337 239.036 803.093 237.206 803.093ZM284.644 823.04C284.644 827.757 284.034 832.109 282.814 836.094C281.594 840.079 280.048 843.475 278.178 846.281C276.348 849.087 274.416 851.303 272.383 852.93L268.479 849.331C270.024 847.826 271.529 845.793 272.993 843.231C274.497 840.669 275.738 837.66 276.714 834.203C277.69 830.706 278.178 826.964 278.178 822.979C278.178 819.197 277.69 815.618 276.714 812.243C275.738 808.827 274.497 805.858 272.993 803.337C271.529 800.775 270.024 798.782 268.479 797.359L272.383 793.76C274.375 795.346 276.307 797.542 278.178 800.348C280.048 803.154 281.594 806.509 282.814 810.413C284.034 814.317 284.644 818.526 284.644 823.04ZM328.31 821.088C328.35 823.487 327.944 825.643 327.09 827.554C326.236 829.425 325.036 830.889 323.491 831.946C321.986 833.003 320.258 833.532 318.306 833.532C316.679 833.532 315.215 833.227 313.914 832.617C312.612 831.966 311.189 830.909 309.644 829.445C308.668 828.55 307.793 827.9 307.021 827.493C306.289 827.046 305.516 826.822 304.703 826.822C303.401 826.822 302.364 827.33 301.592 828.347C300.86 829.364 300.514 830.726 300.555 832.434L294.394 832.373C294.394 829.974 294.8 827.859 295.614 826.029C296.468 824.158 297.647 822.715 299.152 821.698C300.697 820.681 302.446 820.173 304.398 820.173C306.024 820.173 307.509 820.498 308.851 821.149C310.193 821.8 311.616 822.816 313.121 824.199C314.097 825.134 314.951 825.826 315.683 826.273C316.455 826.68 317.228 826.883 318.001 826.883C319.302 826.883 320.359 826.334 321.173 825.236C321.986 824.138 322.372 822.755 322.332 821.088H328.31ZM365.195 832.983C365.195 836.968 363.853 840.079 361.169 842.316C358.485 844.512 354.987 845.61 350.677 845.61C346.366 845.61 342.848 844.512 340.124 842.316C337.44 840.079 336.098 836.968 336.098 832.983C336.098 830.624 336.728 828.51 337.989 826.639C339.249 824.768 340.978 823.345 343.174 822.369C341.262 821.434 339.758 820.112 338.66 818.404C337.602 816.696 337.074 814.805 337.074 812.731C337.074 808.868 338.314 805.879 340.795 803.764C343.316 801.609 346.61 800.531 350.677 800.531C354.703 800.531 357.956 801.609 360.437 803.764C362.958 805.919 364.219 808.908 364.219 812.731C364.219 814.805 363.67 816.696 362.572 818.404C361.514 820.112 360.01 821.454 358.058 822.43C360.294 823.406 362.043 824.809 363.304 826.639C364.564 828.469 365.195 830.584 365.195 832.983ZM356.472 813.036C356.472 811.165 355.943 809.64 354.886 808.461C353.869 807.282 352.466 806.692 350.677 806.692C348.847 806.692 347.403 807.261 346.346 808.4C345.288 809.539 344.76 811.084 344.76 813.036C344.76 814.947 345.288 816.493 346.346 817.672C347.403 818.811 348.847 819.38 350.677 819.38C352.466 819.38 353.869 818.811 354.886 817.672C355.943 816.493 356.472 814.947 356.472 813.036ZM357.448 832.556C357.448 830.441 356.817 828.754 355.557 827.493C354.296 826.232 352.649 825.602 350.616 825.602C348.542 825.602 346.895 826.232 345.675 827.493C344.455 828.754 343.845 830.441 343.845 832.556C343.845 834.671 344.455 836.338 345.675 837.558C346.895 838.778 348.562 839.388 350.677 839.388C352.791 839.388 354.438 838.778 355.618 837.558C356.838 836.338 357.448 834.671 357.448 832.556ZM409.385 827.127H402.248V825.541H393.342V821.149H402.248V797.481H409.385V827.127ZM367.417 815.354C374.167 815.354 380.023 815.313 384.985 815.232C389.946 815.11 394.745 814.825 399.381 814.378L399.747 818.953C396.371 819.441 392 819.868 386.632 820.234V827.127H379.495V820.478C376.404 820.559 374.147 820.6 372.724 820.6L368.21 820.539L367.417 815.354ZM409.385 840.608H381.752V843.109H410.605V848.294H374.615V835.85H402.309V833.532H374.432V828.591H409.385V840.608ZM383.277 798.213C387.018 798.213 390.027 798.925 392.305 800.348C394.582 801.731 395.721 803.601 395.721 805.96C395.721 808.278 394.582 810.128 392.305 811.511C390.027 812.894 387.018 813.585 383.277 813.585C379.495 813.585 376.465 812.894 374.188 811.511C371.91 810.128 370.772 808.278 370.772 805.96C370.772 803.601 371.91 801.731 374.188 800.348C376.506 798.925 379.535 798.213 383.277 798.213ZM383.277 803.093C381.447 803.093 380.023 803.337 379.007 803.825C377.99 804.313 377.482 805.025 377.482 805.96C377.482 806.814 377.99 807.485 379.007 807.973C380.064 808.461 381.487 808.705 383.277 808.705C385.066 808.705 386.469 808.461 387.486 807.973C388.543 807.485 389.072 806.814 389.072 805.96C389.072 805.025 388.563 804.313 387.547 803.825C386.53 803.337 385.107 803.093 383.277 803.093ZM414.855 839.693L429.129 824.199C431.365 821.759 432.911 819.746 433.765 818.16C434.659 816.533 435.107 814.988 435.107 813.524C435.107 811.45 434.558 809.803 433.46 808.583C432.362 807.322 430.837 806.692 428.885 806.692C426.607 806.692 424.838 807.424 423.578 808.888C422.358 810.352 421.748 812.263 421.748 814.622H414.001C414.001 812.019 414.59 809.661 415.77 807.546C416.99 805.391 418.738 803.683 421.016 802.422C423.293 801.161 425.957 800.531 429.007 800.531C433.439 800.531 436.855 801.609 439.255 803.764C441.695 805.919 442.915 808.908 442.915 812.731C442.915 815.334 442.142 817.916 440.597 820.478C439.051 823.04 436.754 825.907 433.704 829.079L424.676 838.778H444.501V845H414.855V839.693ZM455.751 819.502C458.11 817.021 461.119 815.781 464.779 815.781C467.463 815.781 469.74 816.452 471.611 817.794C473.522 819.136 474.946 820.925 475.881 823.162C476.816 825.399 477.284 827.879 477.284 830.604C477.284 833.41 476.694 835.952 475.515 838.229C474.376 840.506 472.709 842.316 470.513 843.658C468.317 844.959 465.755 845.61 462.827 845.61C459.777 845.61 457.113 844.858 454.836 843.353C452.599 841.808 450.871 839.713 449.651 837.07C448.431 834.427 447.821 831.499 447.821 828.286V819.502C447.821 816.005 448.411 812.833 449.59 809.986C450.769 807.099 452.518 804.821 454.836 803.154C457.154 801.446 459.899 800.592 463.071 800.592C465.43 800.592 467.605 801.08 469.598 802.056C471.631 802.991 473.258 804.293 474.478 805.96C475.698 807.587 476.349 809.356 476.43 811.267H468.866C468.622 810.169 467.992 809.152 466.975 808.217C465.999 807.282 464.637 806.814 462.888 806.814C460.448 806.814 458.638 807.871 457.459 809.986C456.32 812.06 455.751 815.232 455.751 819.502ZM455.568 829.201C455.568 832.454 456.239 834.976 457.581 836.765C458.923 838.514 460.651 839.388 462.766 839.388C464.84 839.388 466.487 838.575 467.707 836.948C468.968 835.321 469.598 833.227 469.598 830.665C469.598 828.184 468.988 826.131 467.768 824.504C466.548 822.877 464.86 822.064 462.705 822.064C461.078 822.064 459.614 822.511 458.313 823.406C457.052 824.26 456.137 825.358 455.568 826.7V829.201ZM493.353 798.945C495.875 798.945 498.132 799.453 500.124 800.47C502.158 801.446 503.744 802.829 504.882 804.618C506.062 806.407 506.651 808.42 506.651 810.657C506.651 812.934 506.062 814.968 504.882 816.757C503.744 818.506 502.158 819.868 500.124 820.844C498.132 821.82 495.875 822.308 493.353 822.308C490.832 822.308 488.555 821.82 486.521 820.844C484.529 819.868 482.943 818.485 481.763 816.696C480.625 814.907 480.055 812.894 480.055 810.657C480.055 808.42 480.625 806.407 481.763 804.618C482.943 802.829 484.549 801.446 486.582 800.47C488.616 799.453 490.873 798.945 493.353 798.945ZM493.353 805.045C491.442 805.045 489.897 805.553 488.717 806.57C487.579 807.546 487.009 808.908 487.009 810.657C487.009 812.406 487.579 813.788 488.717 814.805C489.897 815.822 491.442 816.33 493.353 816.33C495.265 816.33 496.79 815.822 497.928 814.805C499.108 813.788 499.697 812.406 499.697 810.657C499.697 808.908 499.108 807.546 497.928 806.57C496.79 805.553 495.265 805.045 493.353 805.045ZM520.864 823.04H513.605V797.42H520.864V823.04ZM520.864 839.144H494.573V842.194H522.084V848.05H487.619V833.715H513.666V830.787H487.436V825.053H520.864V839.144ZM528.53 823.04C528.53 818.526 529.14 814.317 530.36 810.413C531.58 806.509 533.125 803.154 534.996 800.348C536.867 797.542 538.798 795.346 540.791 793.76L544.695 797.359C543.15 798.782 541.625 800.775 540.12 803.337C538.656 805.858 537.436 808.827 536.46 812.243C535.484 815.618 534.996 819.197 534.996 822.979C534.996 826.964 535.484 830.706 536.46 834.203C537.436 837.66 538.656 840.669 540.12 843.231C541.625 845.793 543.15 847.826 544.695 849.331L540.791 852.93C538.758 851.303 536.806 849.087 534.935 846.281C533.105 843.475 531.58 840.079 530.36 836.094C529.14 832.109 528.53 827.757 528.53 823.04ZM586.47 818.16H592.753V824.321H586.47V848.599H579.272V797.42H586.47V818.16ZM546.149 834.02C551.314 834.02 555.34 834 558.227 833.959V829.75C555.584 829.181 553.489 828.083 551.944 826.456C550.399 824.789 549.626 822.776 549.626 820.417C549.626 818.546 550.134 816.899 551.151 815.476C552.208 814.012 553.672 812.873 555.543 812.06C557.414 811.247 559.549 810.84 561.948 810.84C564.266 810.84 566.34 811.247 568.17 812.06C570.041 812.873 571.484 814.012 572.501 815.476C573.558 816.899 574.087 818.546 574.087 820.417C574.087 822.776 573.314 824.789 571.769 826.456C570.224 828.083 568.129 829.181 565.486 829.75V833.715C570.122 833.43 573.904 833.085 576.832 832.678L577.32 837.985C572.643 838.92 567.906 839.51 563.107 839.754C558.308 839.998 552.94 840.12 547.003 840.12L546.149 834.02ZM576.466 808.949H547.125V803.093H558.227V797.786H565.486V803.093H576.466V808.949ZM561.948 816.574C560.281 816.574 558.939 816.92 557.922 817.611C556.946 818.262 556.458 819.197 556.458 820.417C556.458 821.718 556.946 822.715 557.922 823.406C558.898 824.057 560.24 824.382 561.948 824.382C563.575 824.382 564.856 824.057 565.791 823.406C566.767 822.715 567.255 821.718 567.255 820.417C567.255 819.197 566.767 818.262 565.791 817.611C564.856 816.92 563.575 816.574 561.948 816.574ZM610.057 823.04C610.057 827.757 609.447 832.109 608.227 836.094C607.007 840.079 605.462 843.475 603.591 846.281C601.761 849.087 599.829 851.303 597.796 852.93L593.892 849.331C595.437 847.826 596.942 845.793 598.406 843.231C599.911 840.669 601.151 837.66 602.127 834.203C603.103 830.706 603.591 826.964 603.591 822.979C603.591 819.197 603.103 815.618 602.127 812.243C601.151 808.827 599.911 805.858 598.406 803.337C596.942 800.775 595.437 798.782 593.892 797.359L597.796 793.76C599.789 795.346 601.72 797.542 603.591 800.348C605.462 803.154 607.007 806.509 608.227 810.413C609.447 814.317 610.057 818.526 610.057 823.04ZM611.457 841.157C611.457 839.896 611.863 838.88 612.677 838.107C613.49 837.294 614.568 836.887 615.91 836.887C617.211 836.887 618.268 837.253 619.082 837.985C619.895 838.676 620.342 839.591 620.424 840.73C620.546 841.259 620.607 841.828 620.607 842.438C620.607 843.983 620.159 845.59 619.265 847.257C618.533 848.477 617.638 849.575 616.581 850.551C615.564 851.568 614.568 852.3 613.592 852.747L611.823 850.551C613.612 849.168 614.771 847.481 615.3 845.488L615.361 845.305C614.181 845.183 613.226 844.736 612.494 843.963C611.802 843.19 611.457 842.255 611.457 841.157ZM679.308 809.742H672.903V814.866H679.308V820.905H672.903V827.31H665.766V797.42H672.903V803.703H679.308V809.742ZM647.405 800.287C649.967 800.287 652.285 800.816 654.359 801.873C656.433 802.93 658.039 804.394 659.178 806.265C660.357 808.136 660.947 810.25 660.947 812.609C660.947 815.008 660.357 817.164 659.178 819.075C658.039 820.946 656.433 822.41 654.359 823.467C652.285 824.524 649.967 825.053 647.405 825.053C644.884 825.053 642.586 824.524 640.512 823.467C638.438 822.41 636.811 820.946 635.632 819.075C634.453 817.164 633.863 815.008 633.863 812.609C633.863 810.25 634.453 808.136 635.632 806.265C636.811 804.394 638.438 802.93 640.512 801.873C642.586 800.816 644.884 800.287 647.405 800.287ZM647.405 806.509C645.494 806.509 643.928 807.058 642.708 808.156C641.488 809.254 640.878 810.738 640.878 812.609C640.878 814.52 641.488 816.025 642.708 817.123C643.928 818.221 645.494 818.77 647.405 818.77C649.398 818.77 651.004 818.241 652.224 817.184C653.444 816.086 654.054 814.561 654.054 812.609C654.054 810.738 653.424 809.254 652.163 808.156C650.943 807.058 649.357 806.509 647.405 806.509ZM656.555 828.286C661.72 828.286 665.807 829.201 668.816 831.031C671.866 832.82 673.391 835.301 673.391 838.473C673.391 841.604 671.866 844.065 668.816 845.854C665.807 847.643 661.72 848.538 656.555 848.538C651.35 848.538 647.202 847.643 644.111 845.854C641.061 844.065 639.536 841.604 639.536 838.473C639.536 835.301 641.061 832.82 644.111 831.031C647.202 829.201 651.35 828.286 656.555 828.286ZM656.555 834.142C653.383 834.142 650.963 834.508 649.296 835.24C647.629 835.972 646.795 837.05 646.795 838.473C646.795 841.279 650.048 842.682 656.555 842.682C659.849 842.682 662.289 842.357 663.875 841.706C665.502 841.015 666.315 839.937 666.315 838.473C666.315 835.586 663.062 834.142 656.555 834.142ZM692.952 798.945C695.473 798.945 697.73 799.453 699.723 800.47C701.756 801.446 703.342 802.829 704.481 804.618C705.66 806.407 706.25 808.42 706.25 810.657C706.25 812.934 705.66 814.968 704.481 816.757C703.342 818.506 701.756 819.868 699.723 820.844C697.73 821.82 695.473 822.308 692.952 822.308C690.43 822.308 688.153 821.82 686.12 820.844C684.127 819.868 682.541 818.485 681.362 816.696C680.223 814.907 679.654 812.894 679.654 810.657C679.654 808.42 680.223 806.407 681.362 804.618C682.541 802.829 684.147 801.446 686.181 800.47C688.214 799.453 690.471 798.945 692.952 798.945ZM692.952 805.045C691.04 805.045 689.495 805.553 688.316 806.57C687.177 807.546 686.608 808.908 686.608 810.657C686.608 812.406 687.177 813.788 688.316 814.805C689.495 815.822 691.04 816.33 692.952 816.33C694.863 816.33 696.388 815.822 697.527 814.805C698.706 813.788 699.296 812.406 699.296 810.657C699.296 808.908 698.706 807.546 697.527 806.57C696.388 805.553 694.863 805.045 692.952 805.045ZM720.463 823.04H713.204V797.42H720.463V823.04ZM720.463 839.144H694.172V842.194H721.683V848.05H687.218V833.715H713.265V830.787H687.035V825.053H720.463V839.144ZM763.631 811.633H770.158V817.794H763.631V834.02H756.311V797.42H763.631V811.633ZM750.15 801.263C750.191 808.176 748.198 814.012 744.172 818.77C740.146 823.487 734.351 826.944 726.787 829.14L723.92 823.223C729.369 821.678 733.639 819.522 736.73 816.757C739.861 813.992 741.712 810.84 742.281 807.302H726.116V801.263H750.15ZM765.217 847.745H731.301V830.238H738.499V841.767H765.217V847.745ZM783.584 797.298H790.599V849.331H783.584V797.298ZM855.855 806.204C855.855 810.637 855.733 814.602 855.489 818.099C855.245 821.596 854.614 825.785 853.598 830.665L846.583 829.994C847.233 827.025 847.803 823.589 848.291 819.685L819.621 821.393L818.645 814.988L848.718 814.012C848.799 812.467 848.84 810.352 848.84 807.668H820.231V801.69H855.855V806.204ZM860.247 842.743H815.046V836.704H831.089V824.443H838.287V836.704H860.247V842.743ZM903.049 828.042H896.217V797.42H903.049V828.042ZM893.045 827.737H886.335V816.086H883.163C882.593 818.973 881.292 821.291 879.259 823.04C877.266 824.748 874.846 825.602 872 825.602C869.844 825.602 867.892 825.073 866.144 824.016C864.436 822.959 863.094 821.495 862.118 819.624C861.142 817.713 860.654 815.537 860.654 813.097C860.654 810.698 861.142 808.542 862.118 806.631C863.094 804.72 864.436 803.235 866.144 802.178C867.892 801.08 869.844 800.531 872 800.531C874.846 800.531 877.286 801.426 879.32 803.215C881.353 805.004 882.654 807.343 883.224 810.23H886.335V798.335H893.045V827.737ZM903.049 848.66H895.912V835.911H868.706V829.994H903.049V848.66ZM872 806.875C870.536 806.875 869.336 807.424 868.401 808.522C867.506 809.62 867.059 811.145 867.059 813.097C867.059 815.09 867.506 816.655 868.401 817.794C869.336 818.933 870.536 819.502 872 819.502C873.504 819.502 874.724 818.933 875.66 817.794C876.595 816.655 877.063 815.09 877.063 813.097C877.063 811.145 876.595 809.62 875.66 808.522C874.724 807.424 873.504 806.875 872 806.875ZM932.004 804.191C932.004 806.712 932.695 809.193 934.078 811.633C935.46 814.032 937.473 816.127 940.117 817.916C942.76 819.705 945.912 820.905 949.572 821.515L946.4 827.676C942.13 826.822 938.429 825.236 935.298 822.918C932.207 820.6 929.848 817.794 928.222 814.5C926.554 817.794 924.155 820.6 921.024 822.918C917.892 825.236 914.232 826.822 910.044 827.676L906.872 821.515C910.491 820.864 913.622 819.644 916.266 817.855C918.909 816.066 920.902 813.971 922.244 811.572C923.626 809.132 924.318 806.672 924.318 804.191V800.531H932.004V804.191ZM951.158 842.438H905.774V836.216H951.158V842.438ZM1001.31 808.278C1001.31 812.955 1001.2 817.062 1001 820.6C1000.8 824.097 1000.29 828.205 999.476 832.922L992.217 832.19C993.03 827.879 993.539 823.975 993.742 820.478C993.945 816.981 994.047 812.914 994.047 808.278V808.095H966.231V802.117H1001.31V808.278ZM1006.73 841.889H961.534V835.85H1006.73V841.889ZM1049.6 835.423H1042.7V817.977H1038.74V834.386H1031.91V798.457H1038.74V811.999H1042.7V797.481H1049.6V835.423ZM1050.76 847.745H1015.86V831.824H1023.06V841.767H1050.76V847.745ZM1027.76 817.672H1015.86V822.735C1018.67 822.654 1021.13 822.532 1023.25 822.369C1025.4 822.166 1027.56 821.84 1029.71 821.393L1030.32 827.31C1027.64 827.798 1025.01 828.123 1022.45 828.286C1019.89 828.408 1016.56 828.469 1012.45 828.469H1008.91V812.121H1020.87V807.424H1008.85V801.629H1027.76V817.672ZM1092.7 827.005H1057.63V801.69H1092.4V807.729H1064.71V821.027H1092.7V827.005ZM1097.65 842.438H1052.26V836.338H1097.65V842.438ZM1110.5 801.629H1130.02V798.213H1137.09V815.415H1123.73V818.587H1142.83V824.443H1097.63V818.587H1116.6V815.415H1103.36V798.213H1110.5V801.629ZM1130.02 809.864V807.058H1110.5V809.864H1130.02ZM1137.4 840.059H1109.95V842.56H1138.68V848.294H1102.87V834.874H1130.32V832.373H1102.87V826.944H1137.4V840.059ZM1188.31 828.896H1169.22V832.129H1183.13V848.05H1148.78V832.129H1162.08V828.896H1142.99V823.04H1188.31V828.896ZM1155.86 842.133H1175.99V837.863H1155.86V842.133ZM1182.88 812.06H1155.8V814.805H1183.68V820.6H1148.6V806.875H1175.69V804.069H1148.54V798.335H1182.88V812.06Z" fill="white"/>
<path d="M17.272 938.716H27.032V932.799H34.23V955.125H10.196V932.799H17.272V938.716ZM27.032 949.269V944.328H17.272V949.269H27.032ZM48.077 940.302H54.665V946.28H48.077V956.467H40.94V930.42H48.077V940.302ZM48.077 972.327H22.213V975.438H49.48V981.294H15.137V967.02H41.001V964.031H15.076V958.297H48.077V972.327ZM99.419 975.926H54.035V970.07H65.137V960.554H57.817V954.576H64.344V940.485H57.634V934.507H95.698V940.485H88.866V954.576H95.393V960.554H88.073V970.07H99.419V975.926ZM81.668 954.576V940.485H71.542V954.576H81.668ZM80.814 970.07V960.554H72.396V970.07H80.814ZM117.882 944.328C117.882 946.971 118.329 949.635 119.224 952.319C120.119 955.003 121.461 957.463 123.25 959.7C125.08 961.896 127.296 963.624 129.899 964.885L125.995 970.741C123.311 969.44 120.993 967.589 119.041 965.19C117.089 962.791 115.523 960.025 114.344 956.894C113.205 960.391 111.619 963.462 109.586 966.105C107.553 968.708 105.153 970.68 102.388 972.022L98.362 966.166C101.046 964.865 103.303 963.055 105.133 960.737C106.963 958.378 108.325 955.776 109.22 952.929C110.115 950.082 110.562 947.215 110.562 944.328V941.461H100.314V935.422H127.764V941.461H117.882V944.328ZM138.561 949.879H145.82V956.04H138.561V981.599H131.363V930.42H138.561V949.879ZM200.543 975.621H155.159V969.521H174.191V959.334H159.978V934.202H195.541V959.334H181.328V969.521H200.543V975.621ZM166.993 953.478H188.465V940.18H166.993V953.478ZM229.864 939.143H220.104C220.307 941.949 221.385 944.491 223.337 946.768C225.289 949.045 228.095 950.713 231.755 951.77L228.217 957.565C225.492 956.752 223.134 955.532 221.141 953.905C219.189 952.278 217.623 950.326 216.444 948.049C215.265 950.489 213.658 952.604 211.625 954.393C209.592 956.182 207.131 957.545 204.244 958.48L200.645 952.685C204.427 951.587 207.314 949.818 209.307 947.378C211.3 944.897 212.398 942.152 212.601 939.143H202.658V933.226H229.864V939.143ZM242.064 958.236H234.866V930.42H242.064V958.236ZM215.895 964.946H234.927V960.31H242.064V981.05H208.88V960.31H215.895V964.946ZM234.927 975.133V970.68H215.895V975.133H234.927ZM259.882 930.298H266.897V982.331H259.882V930.298ZM320.537 954.088C320.577 956.487 320.171 958.643 319.317 960.554C318.463 962.425 317.263 963.889 315.718 964.946C314.213 966.003 312.485 966.532 310.533 966.532C308.906 966.532 307.442 966.227 306.141 965.617C304.839 964.966 303.416 963.909 301.871 962.445C300.895 961.55 300.02 960.9 299.248 960.493C298.516 960.046 297.743 959.822 296.93 959.822C295.628 959.822 294.591 960.33 293.819 961.347C293.087 962.364 292.741 963.726 292.782 965.434L286.621 965.373C286.621 962.974 287.027 960.859 287.841 959.029C288.695 957.158 289.874 955.715 291.379 954.698C292.924 953.681 294.673 953.173 296.625 953.173C298.251 953.173 299.736 953.498 301.078 954.149C302.42 954.8 303.843 955.816 305.348 957.199C306.324 958.134 307.178 958.826 307.91 959.273C308.682 959.68 309.455 959.883 310.228 959.883C311.529 959.883 312.586 959.334 313.4 958.236C314.213 957.138 314.599 955.755 314.559 954.088H320.537ZM366.354 934.141V940.668H348.908L347.688 950.916C348.461 950.469 349.437 950.082 350.616 949.757C351.836 949.391 353.117 949.208 354.459 949.208C358.648 949.208 361.921 950.509 364.28 953.112C366.639 955.715 367.818 959.314 367.818 963.909C367.818 966.634 367.269 969.114 366.171 971.351C365.114 973.588 363.487 975.357 361.291 976.658C359.095 977.959 356.411 978.61 353.239 978.61C350.718 978.61 348.379 978.122 346.224 977.146C344.069 976.129 342.32 974.686 340.978 972.815C339.636 970.904 338.904 968.626 338.782 965.983H346.346C346.549 968.016 347.261 969.602 348.481 970.741C349.701 971.839 351.287 972.388 353.239 972.388C355.476 972.388 357.163 971.595 358.302 970.009C359.481 968.423 360.071 966.288 360.071 963.604C360.071 961.083 359.42 959.07 358.119 957.565C356.818 956.02 354.927 955.247 352.446 955.247C350.941 955.247 349.742 955.471 348.847 955.918C347.952 956.325 347.078 956.955 346.224 957.809L340.002 956.284L342.442 934.141H366.354ZM412.008 960.127H404.871V958.541H395.965V954.149H404.871V930.481H412.008V960.127ZM370.04 948.354C376.791 948.354 382.647 948.313 387.608 948.232C392.57 948.11 397.368 947.825 402.004 947.378L402.37 951.953C398.995 952.441 394.623 952.868 389.255 953.234V960.127H382.118V953.478C379.028 953.559 376.771 953.6 375.347 953.6L370.833 953.539L370.04 948.354ZM412.008 973.608H384.375V976.109H413.228V981.294H377.238V968.85H404.932V966.532H377.055V961.591H412.008V973.608ZM385.9 931.213C389.642 931.213 392.651 931.925 394.928 933.348C397.206 934.731 398.344 936.601 398.344 938.96C398.344 941.278 397.206 943.128 394.928 944.511C392.651 945.894 389.642 946.585 385.9 946.585C382.118 946.585 379.089 945.894 376.811 944.511C374.534 943.128 373.395 941.278 373.395 938.96C373.395 936.601 374.534 934.731 376.811 933.348C379.129 931.925 382.159 931.213 385.9 931.213ZM385.9 936.093C384.07 936.093 382.647 936.337 381.63 936.825C380.614 937.313 380.105 938.025 380.105 938.96C380.105 939.814 380.614 940.485 381.63 940.973C382.688 941.461 384.111 941.705 385.9 941.705C387.69 941.705 389.093 941.461 390.109 940.973C391.167 940.485 391.695 939.814 391.695 938.96C391.695 938.025 391.187 937.313 390.17 936.825C389.154 936.337 387.73 936.093 385.9 936.093ZM440.44 943.535L432.144 947.622V940.851L444.1 933.958H448.187V978H440.44V943.535ZM490.121 959.639C490.121 966.146 488.84 970.944 486.278 974.035C483.756 977.085 480.218 978.61 475.664 978.61C471.068 978.61 467.49 977.085 464.928 974.035C462.366 970.944 461.085 966.146 461.085 959.639V952.38C461.085 945.833 462.345 941.054 464.867 938.045C467.429 935.036 471.007 933.531 475.603 933.531C480.157 933.531 483.716 935.056 486.278 938.106C488.84 941.115 490.121 945.873 490.121 952.38V959.639ZM482.374 951.16C482.374 947.093 481.804 944.186 480.666 942.437C479.527 940.648 477.839 939.753 475.603 939.753C473.325 939.753 471.617 940.648 470.479 942.437C469.34 944.186 468.771 947.093 468.771 951.16V960.737C468.771 964.844 469.36 967.813 470.54 969.643C471.719 971.473 473.427 972.388 475.664 972.388C477.9 972.388 479.568 971.473 480.666 969.643C481.804 967.813 482.374 964.844 482.374 960.737V951.16ZM506.373 931.945C508.894 931.945 511.151 932.453 513.144 933.47C515.177 934.446 516.763 935.829 517.902 937.618C519.081 939.407 519.671 941.42 519.671 943.657C519.671 945.934 519.081 947.968 517.902 949.757C516.763 951.506 515.177 952.868 513.144 953.844C511.151 954.82 508.894 955.308 506.373 955.308C503.852 955.308 501.574 954.82 499.541 953.844C497.548 952.868 495.962 951.485 494.783 949.696C493.644 947.907 493.075 945.894 493.075 943.657C493.075 941.42 493.644 939.407 494.783 937.618C495.962 935.829 497.569 934.446 499.602 933.47C501.635 932.453 503.892 931.945 506.373 931.945ZM506.373 938.045C504.462 938.045 502.916 938.553 501.737 939.57C500.598 940.546 500.029 941.908 500.029 943.657C500.029 945.406 500.598 946.788 501.737 947.805C502.916 948.822 504.462 949.33 506.373 949.33C508.284 949.33 509.809 948.822 510.948 947.805C512.127 946.788 512.717 945.406 512.717 943.657C512.717 941.908 512.127 940.546 510.948 939.57C509.809 938.553 508.284 938.045 506.373 938.045ZM533.884 956.04H526.625V930.42H533.884V956.04ZM533.884 972.144H507.593V975.194H535.104V981.05H500.639V966.715H526.686V963.787H500.456V958.053H533.884V972.144ZM577.418 950.428H583.884V956.528H577.418V981.599H570.159V930.42H577.418V950.428ZM552.408 935.727C552.408 941.014 552.164 945.609 551.676 949.513C551.188 953.417 550.192 957.158 548.687 960.737C547.223 964.275 545.068 967.671 542.221 970.924L536.67 966.715C539.842 963.136 542.058 959.436 543.319 955.613C544.58 951.79 545.332 947.175 545.576 941.766H538.927V935.727H552.408ZM566.194 935.727C566.194 941.339 565.95 946.28 565.462 950.55C565.015 954.779 564.059 958.887 562.595 962.872C561.131 966.817 558.996 970.558 556.19 974.096L550.639 969.948C553.77 965.922 555.966 961.733 557.227 957.382C558.488 952.99 559.22 947.785 559.423 941.766H554.116V935.727H566.194ZM602.347 944.328C602.347 948.72 603.404 952.827 605.519 956.65C607.633 960.473 610.683 963.218 614.669 964.885L610.826 970.741C608.02 969.48 605.6 967.671 603.567 965.312C601.574 962.953 599.988 960.188 598.809 957.016C597.67 960.473 596.084 963.502 594.051 966.105C592.017 968.708 589.577 970.68 586.731 972.022L582.644 966.166C585.328 964.946 587.585 963.177 589.415 960.859C591.285 958.541 592.668 955.938 593.563 953.051C594.498 950.164 594.966 947.256 594.966 944.328V941.461H584.596V935.422H612.595V941.461H602.347V944.328ZM624.49 981.599H617.231V930.42H624.49V981.599Z" fill="white"/>
</svg>
