<svg width="360" height="210" viewBox="0 0 360 210" fill="none" xmlns="http://www.w3.org/2000/svg">
<path fill-rule="evenodd" clip-rule="evenodd" d="M41.4942 29.7799C41.0491 31.9404 39.0515 37.499 32.6786 40.5063L30.1273 37.6293L25.8172 41.9611C20.8448 41.8959 16.1873 39.5075 13.2234 35.5014C13.6794 35.6425 14.1571 35.7293 14.6348 35.7619C15.3405 35.7728 16.1005 35.5122 16.1005 34.3288V22.6362C16.133 21.5722 15.3079 20.682 14.244 20.6494C14.0485 20.6494 13.864 20.6603 13.6794 20.7146C11.6818 21.1705 10.0859 26.1537 10.0859 26.1537C10.0424 21.4962 12.0509 17.0558 15.5685 14.016C18.5432 11.4972 21.4419 10.6287 23.6459 10.2813C21.4637 11.5189 20.2369 13.5491 20.2369 15.2536C20.2369 17.9787 21.8871 17.6638 22.3756 17.2621V33.0586C22.4625 33.254 22.5602 33.4494 22.6905 33.6123C23.1356 34.2203 23.8413 34.5894 24.6012 34.5785C26.2515 34.5785 28.3902 32.6895 28.3902 32.6895V19.9003C28.3902 18.5975 27.4131 17.0233 26.4252 16.4913C26.4252 16.4913 28.2382 16.1765 29.6496 17.2404C29.9102 16.9147 30.1924 16.6107 30.4856 16.3176C33.7534 13.104 36.8367 12.2029 39.3989 11.7469C39.3989 11.7469 34.7305 15.4165 34.7305 20.3346C34.7305 23.9933 34.8282 32.9175 34.8282 32.9175C36.5653 34.5894 39.1383 32.1792 41.4725 29.7799H41.4942ZM26.0343 0C40.4086 0 52.0687 11.6492 52.0687 26.0343C52.0687 40.4086 40.4194 52.0687 26.0343 52.0687C11.6601 52.0687 0 40.4086 0 26.0343C0 11.6601 11.6492 0 26.0343 0Z" fill="white"/>
<path d="M351.365 168.745H337.162V97.2755H328.526V84.2087H360V97.2755H351.365V168.745Z" fill="white"/>
<path d="M309.854 170.108C304.324 170.108 300.082 168.745 297.128 166.018C294.249 163.215 292.81 159.011 292.81 153.406V138.067H306.672V153.406C306.672 156.36 307.733 157.837 309.854 157.837C310.687 157.837 311.331 157.572 311.785 157.042C312.316 156.436 312.581 155.678 312.581 154.769V138.635C312.581 136.589 312.05 135.074 310.99 134.09C310.005 133.029 307.808 131.59 304.4 129.772C300.234 127.499 297.279 125.151 295.537 122.727C293.871 120.303 293.037 116.895 293.037 112.501V97.9572C293.037 93.2608 294.552 89.5869 297.582 86.9357C300.612 84.2845 304.627 82.9589 309.626 82.9589C315.005 82.9589 319.133 84.436 322.011 87.3902C324.966 90.2687 326.405 94.3213 326.329 99.548V113.524H312.922V99.548C312.922 96.6695 311.861 95.2303 309.74 95.2303C308.074 95.2303 307.24 96.1771 307.24 98.0709V112.274C307.24 114.092 307.657 115.493 308.49 116.478C309.399 117.463 310.876 118.561 312.922 119.773C318.148 122.349 321.746 124.962 323.716 127.613C325.761 130.189 326.784 133.787 326.784 138.407V154.883C326.784 159.655 325.231 163.405 322.125 166.132C319.019 168.783 314.929 170.108 309.854 170.108Z" fill="white"/>
<path d="M290.033 168.745H262.764V84.2087H289.693V96.7074H276.967V119.319H288.215V131.363H276.967V156.019H290.033V168.745Z" fill="white"/>
<path d="M247.229 168.745H233.026V84.2087H259.614V96.821H247.229V120.796H258.137V133.408H247.229V168.745Z" fill="white"/>
<path d="M212.545 168.745H186.866V84.2087H201.069V155.678H212.545V168.745Z" fill="white"/>
<path d="M184.416 168.745H169.986L168.85 156.133H160.441L159.305 168.745H144.875L154.419 84.2087H174.758L184.416 168.745ZM163.964 115.114L161.464 144.202H167.827L165.327 115.114L164.759 103.752H164.418L163.964 115.114Z" fill="white"/>
<path d="M143.121 168.745H115.851V84.2087H142.78V96.7074H130.054V119.319H141.303V131.363H130.054V156.019H143.121V168.745Z" fill="white"/>
<path d="M78.5684 168.745V84.2087H95.7256C101.255 84.2087 105.422 85.4965 108.224 88.0719C111.027 90.6474 112.428 94.3591 112.428 99.2071V117.728C112.428 124.091 109.815 128.143 104.588 129.886V129.999C107.315 130.681 109.209 132.082 110.269 134.203C111.406 136.324 111.974 139.279 111.974 143.066L112.087 158.519C112.239 163.14 112.618 166.548 113.224 168.745H99.1343C98.6041 166.094 98.3011 162.117 98.2253 156.814L98.1117 140.907C98.0359 139.392 97.6951 138.256 97.0891 137.498C96.4831 136.741 95.5362 136.362 94.2485 136.362H92.7714V168.745H78.5684ZM94.8166 125.568C97.1648 125.568 98.3389 123.901 98.3389 120.568V100.911C98.3389 97.73 97.2406 96.1392 95.0438 96.1392H92.7714V125.568H94.8166Z" fill="white"/>
<path d="M51.9272 168.745H38.1787V84.2087H52.4953L59.0855 117.501L60.9035 129.886H61.1308L60.2218 114.546V84.2087H73.9703V168.745H59.6537L53.1771 135.567L51.3591 123.295H51.0182L51.9272 138.635V168.745Z" fill="white"/>
<path d="M17.0436 170.108C11.2867 170.108 7.00682 168.594 4.20409 165.564C1.40136 162.534 0 157.875 0 151.588V84.2087H14.0894V152.951C14.0894 154.391 14.3545 155.489 14.8847 156.246C15.415 157.004 16.1346 157.383 17.0436 157.383C17.9526 157.383 18.6343 157.004 19.0888 156.246C19.6191 155.489 19.8842 154.391 19.8842 152.951V84.2087H33.9736V151.474C33.9736 157.761 32.5722 162.458 29.7695 165.564C27.0425 168.594 22.8006 170.108 17.0436 170.108Z" fill="white"/>
<path d="M201.869 209.574C199.773 209.574 197.908 209.201 196.275 208.455C194.642 207.696 193.356 206.655 192.417 205.33C191.478 203.992 190.989 202.462 190.951 200.739H197.702C197.728 201.793 198.146 202.642 198.956 203.285C199.767 203.915 200.738 204.23 201.869 204.23C202.744 204.23 203.509 204.044 204.165 203.671C204.834 203.285 205.355 202.751 205.727 202.07C206.113 201.375 206.306 200.572 206.306 199.658C206.306 198.72 206.113 197.903 205.727 197.209C205.342 196.514 204.814 195.974 204.146 195.588C203.477 195.202 202.705 195.009 201.831 195.009C200.982 195.009 200.191 195.196 199.458 195.569C198.725 195.942 198.165 196.45 197.78 197.093L191.626 195.935L192.86 180.445H211.322V186.058H198.571L197.934 192.83H198.088C198.577 192.032 199.349 191.376 200.403 190.862C201.471 190.347 202.68 190.09 204.03 190.09C205.753 190.09 207.284 190.489 208.621 191.286C209.971 192.084 211.039 193.19 211.823 194.604C212.608 196.006 213 197.626 213 199.466C213 201.433 212.537 203.182 211.611 204.713C210.685 206.23 209.386 207.42 207.714 208.281C206.043 209.143 204.094 209.574 201.869 209.574Z" fill="white"/>
<path d="M166.721 209.188V204.211L177.215 195.029C178 194.308 178.669 193.653 179.222 193.061C179.775 192.469 180.192 191.871 180.475 191.267C180.771 190.663 180.919 190 180.919 189.28C180.919 188.496 180.745 187.82 180.398 187.254C180.051 186.689 179.575 186.251 178.971 185.943C178.379 185.634 177.691 185.48 176.907 185.48C176.109 185.48 175.408 185.64 174.804 185.962C174.199 186.283 173.73 186.746 173.396 187.351C173.074 187.955 172.913 188.695 172.913 189.569H166.316C166.316 187.615 166.753 185.93 167.628 184.515C168.515 183.1 169.756 182.007 171.351 181.236C172.946 180.451 174.804 180.059 176.926 180.059C179.099 180.059 180.99 180.426 182.597 181.159C184.205 181.879 185.452 182.895 186.34 184.207C187.227 185.505 187.671 187.023 187.671 188.759C187.671 189.852 187.446 190.933 186.996 192C186.558 193.067 185.774 194.257 184.642 195.569C183.511 196.868 181.897 198.424 179.8 200.237L176.366 203.401V203.594H188.018V209.188H166.721Z" fill="white"/>
<path d="M151.694 209.574C149.147 209.574 146.967 208.989 145.154 207.819C143.353 206.648 141.971 204.97 141.006 202.784C140.042 200.584 139.56 197.935 139.56 194.836C139.56 191.736 140.042 189.087 141.006 186.888C141.971 184.676 143.36 182.985 145.173 181.814C146.987 180.644 149.166 180.059 151.713 180.059C154.259 180.059 156.439 180.651 158.252 181.834C160.066 183.004 161.455 184.689 162.419 186.888C163.384 189.087 163.866 191.736 163.866 194.836C163.866 197.935 163.384 200.584 162.419 202.784C161.455 204.97 160.066 206.648 158.252 207.819C156.452 208.989 154.266 209.574 151.694 209.574ZM151.694 203.902C152.774 203.902 153.687 203.555 154.433 202.861C155.179 202.153 155.745 201.125 156.13 199.774C156.516 198.424 156.709 196.778 156.709 194.836C156.709 192.881 156.516 191.228 156.13 189.878C155.745 188.515 155.179 187.48 154.433 186.772C153.687 186.052 152.774 185.692 151.694 185.692C150.086 185.692 148.851 186.489 147.99 188.084C147.128 189.666 146.697 191.916 146.697 194.836C146.697 196.778 146.884 198.424 147.257 199.774C147.642 201.125 148.208 202.153 148.954 202.861C149.713 203.555 150.626 203.902 151.694 203.902Z" fill="white"/>
<path d="M115.677 209.188V204.211L126.171 195.029C126.956 194.308 127.625 193.653 128.178 193.061C128.731 192.469 129.149 191.871 129.431 191.267C129.727 190.663 129.875 190 129.875 189.28C129.875 188.496 129.702 187.82 129.354 187.254C129.007 186.689 128.531 186.251 127.927 185.943C127.335 185.634 126.647 185.48 125.863 185.48C125.065 185.48 124.364 185.64 123.76 185.962C123.156 186.283 122.686 186.746 122.352 187.351C122.03 187.955 121.869 188.695 121.869 189.569H115.272C115.272 187.615 115.709 185.93 116.584 184.515C117.471 183.1 118.712 182.007 120.307 181.236C121.902 180.451 123.76 180.059 125.882 180.059C128.055 180.059 129.946 180.426 131.553 181.159C133.161 181.879 134.409 182.895 135.296 184.207C136.183 185.505 136.627 187.023 136.627 188.759C136.627 189.852 136.402 190.933 135.952 192C135.515 193.067 134.73 194.257 133.598 195.569C132.467 196.868 130.853 198.424 128.756 200.237L125.323 203.401V203.594H136.974V209.188H115.677Z" fill="white"/>
<path d="M105.106 180.445V209.188H98.2383V180.445H105.106Z" fill="white"/>
<path d="M88.1306 199.89V187.621H94.9982V209.188H88.4393V205.176H88.2078C87.7448 206.487 86.941 207.536 85.7964 208.32C84.6518 209.092 83.2693 209.471 81.6489 209.458C80.1828 209.458 78.8903 209.124 77.7714 208.455C76.6654 207.786 75.7973 206.847 75.1672 205.639C74.5499 204.417 74.2412 202.996 74.2412 201.375V187.621H81.1088V200.044C81.1088 201.202 81.411 202.121 82.0154 202.803C82.6327 203.472 83.4687 203.8 84.5232 203.787C85.2048 203.787 85.8157 203.639 86.3559 203.343C86.896 203.034 87.3268 202.591 87.6484 202.012C87.9699 201.433 88.1306 200.726 88.1306 199.89Z" fill="white"/>
<path d="M60.9106 209.593C58.6471 209.593 56.7052 209.13 55.0847 208.204C53.4643 207.266 52.2168 205.967 51.3423 204.308C50.4806 202.636 50.0498 200.694 50.0498 198.482C50.0498 196.257 50.4806 194.315 51.3423 192.656C52.2168 190.984 53.4643 189.685 55.0847 188.759C56.7052 187.82 58.6471 187.351 60.9106 187.351C63.174 187.351 65.116 187.82 66.7364 188.759C68.3697 189.685 69.6172 190.984 70.4788 192.656C71.3533 194.315 71.7906 196.257 71.7906 198.482C71.7906 200.694 71.3533 202.636 70.4788 204.308C69.6172 205.967 68.3697 207.266 66.7364 208.204C65.116 209.13 63.174 209.593 60.9106 209.593ZM60.9491 204.365C61.7851 204.365 62.486 204.121 63.0518 203.632C63.6177 203.144 64.0485 202.456 64.3443 201.568C64.653 200.668 64.8073 199.626 64.8073 198.443C64.8073 197.247 64.653 196.212 64.3443 195.337C64.0485 194.463 63.6177 193.788 63.0518 193.312C62.486 192.823 61.7851 192.579 60.9491 192.579C60.1132 192.579 59.3994 192.823 58.8079 193.312C58.2163 193.788 57.7726 194.463 57.4768 195.337C57.181 196.212 57.0331 197.247 57.0331 198.443C57.0331 199.626 57.181 200.668 57.4768 201.568C57.7726 202.456 58.2163 203.144 58.8079 203.632C59.3994 204.121 60.1132 204.365 60.9491 204.365Z" fill="white"/>
<path d="M38.3022 209.593C36.0387 209.593 34.0903 209.15 32.457 208.262C30.8237 207.362 29.5698 206.082 28.6953 204.423C27.8337 202.764 27.4028 200.784 27.4028 198.482C27.4028 196.257 27.8401 194.315 28.7146 192.656C29.5891 190.984 30.8237 189.685 32.4185 188.759C34.0132 187.82 35.8908 187.351 38.0514 187.351C39.5818 187.351 40.9836 187.595 42.2568 188.084C43.5428 188.56 44.6489 189.267 45.5748 190.206C46.5136 191.132 47.2338 192.277 47.7354 193.64C48.2498 195.003 48.507 196.578 48.507 198.366V200.064H29.7756V196.109H45.2469L42.0446 197.035C42.0446 196.045 41.8967 195.202 41.6009 194.508C41.3051 193.8 40.8678 193.254 40.2891 192.868C39.7104 192.482 38.9902 192.289 38.1285 192.289C37.2669 192.289 36.5403 192.482 35.9487 192.868C35.3571 193.254 34.907 193.794 34.5983 194.489C34.2897 195.17 34.1353 195.98 34.1353 196.919V199.755C34.1353 200.758 34.309 201.626 34.6562 202.359C35.0163 203.092 35.5179 203.658 36.1609 204.057C36.8168 204.443 37.5691 204.636 38.4179 204.636C39.0095 204.636 39.5496 204.552 40.0383 204.385C40.527 204.218 40.945 203.973 41.2922 203.652C41.6395 203.317 41.9031 202.919 42.0832 202.456L48.372 202.629C48.1148 204.044 47.5489 205.272 46.6744 206.314C45.7999 207.356 44.6553 208.166 43.2406 208.744C41.826 209.31 40.1798 209.593 38.3022 209.593Z" fill="white"/>
<path d="M14.3812 209.574C11.9763 209.574 9.88004 209.214 8.09242 208.494C6.3048 207.761 4.90943 206.661 3.9063 205.195C2.91604 203.716 2.40805 201.858 2.38232 199.62H9.01838C9.08268 200.533 9.33346 201.305 9.77072 201.935C10.2208 202.552 10.8253 203.021 11.5841 203.343C12.3557 203.665 13.2559 203.825 14.2848 203.825C15.2236 203.825 16.021 203.697 16.6768 203.439C17.3456 203.182 17.86 202.829 18.2201 202.378C18.5802 201.928 18.7603 201.407 18.7603 200.816C18.7603 200.276 18.5931 199.819 18.2587 199.446C17.9243 199.06 17.4163 198.726 16.7347 198.443C16.066 198.147 15.2043 197.884 14.1497 197.652L11.1211 196.958C8.65185 196.392 6.70348 195.472 5.27595 194.199C3.84843 192.913 3.13467 191.17 3.13467 188.971C3.13467 187.197 3.61694 185.64 4.58148 184.303C5.54602 182.965 6.87066 181.924 8.5554 181.178C10.253 180.432 12.1949 180.059 14.3812 180.059C16.6061 180.059 18.5416 180.438 20.1878 181.197C21.8339 181.943 23.1071 182.998 24.0074 184.361C24.9076 185.711 25.3706 187.28 25.3963 189.068H18.7217C18.6445 188.039 18.233 187.242 17.4871 186.676C16.754 186.097 15.7123 185.808 14.3619 185.808C13.4617 185.808 12.7094 185.923 12.1049 186.155C11.5133 186.386 11.0632 186.708 10.7546 187.119C10.4588 187.531 10.3109 187.994 10.3109 188.508C10.3109 189.074 10.4781 189.556 10.8124 189.955C11.1468 190.354 11.6291 190.688 12.2592 190.958C12.9023 191.228 13.6546 191.46 14.5163 191.653L16.9662 192.212C18.3809 192.521 19.6348 192.932 20.7279 193.447C21.8211 193.961 22.7406 194.572 23.4865 195.279C24.2453 195.987 24.8176 196.803 25.2034 197.729C25.5892 198.655 25.7821 199.691 25.7821 200.835C25.7821 202.661 25.3256 204.23 24.4125 205.542C23.5122 206.841 22.2133 207.838 20.5157 208.532C18.8181 209.227 16.7733 209.574 14.3812 209.574Z" fill="white"/>
</svg>
