<svg width="65" height="62" viewBox="0 0 65 62" fill="none" xmlns="http://www.w3.org/2000/svg">
<path d="M51.3566 0C52.1018 0 52.698 0.591145 52.698 1.32994V4.65404H63.652C64.0804 4.65404 64.5088 4.87579 64.7509 5.22693C65.0119 5.57755 65.0677 6.03929 64.9188 6.44574C62.4037 13.1496 58.2866 18.0254 52.6981 20.9258V30.1598C52.6981 39.6343 44.3524 47.4101 33.8457 48.0192V59.3401H49.7179C50.4631 59.3401 51.0594 59.9313 51.0594 60.6701C51.0594 61.4089 50.4631 62 49.7179 62H15.2925C14.5473 62 13.951 61.4089 13.951 60.6701C13.951 59.9313 14.5473 59.3401 15.2925 59.3401H31.1633V48.0192C20.6568 47.4098 12.311 39.6342 12.311 30.1598V20.9258C6.7035 18.0259 2.60538 13.169 0.0902949 6.44574C-0.0770629 6.03929 -0.00285678 5.57755 0.239236 5.22693C0.481326 4.87579 0.891287 4.65404 1.33863 4.65404H12.2926V1.32994C12.2926 0.591145 12.8884 0 13.6336 0H51.3566ZM50.034 2.67817H14.9929V30.1785C14.9929 38.5818 22.8545 45.4333 32.5047 45.4333C42.1549 45.4333 50.0165 38.5999 50.0165 30.1785H50.0349L50.034 2.67817ZM32.467 7.42451C32.9701 7.42451 33.5101 7.73861 33.7153 8.23687L36.9009 15.7355L44.7993 16.2343C45.3582 16.2708 45.824 16.622 45.9918 17.139C46.1592 17.6378 46.0103 18.2102 45.6003 18.5613L39.3971 23.8988L41.3533 31.5075C41.4833 32.0433 41.2786 32.5974 40.8502 32.9115C40.6081 33.0774 40.3286 33.1698 40.0492 33.1698C39.8071 33.1698 39.5834 33.1145 39.3598 32.9851L32.3366 28.7741L25.6491 32.9669C25.2018 33.2622 24.6055 33.244 24.1588 32.9299C23.7304 32.6158 23.5067 32.0617 23.6372 31.5447L25.4997 23.6219L19.3896 18.598C18.9612 18.2474 18.7933 17.6933 18.9612 17.1762C19.1285 16.6592 19.5943 16.308 20.1348 16.2527L28.3126 15.551L31.2376 8.25587C31.4423 7.75708 31.927 7.42451 32.467 7.42451ZM32.5228 12.2814L30.5108 17.3236C30.3245 17.7854 29.8776 18.1177 29.3745 18.1548L23.6555 18.6165L27.8657 22.0888C28.2567 22.4211 28.4246 22.9194 28.3125 23.4182L27.0089 28.9957L31.6286 26.0964C31.8338 25.967 32.0943 25.8929 32.3364 25.8929C32.5785 25.8929 32.8211 25.9487 33.0259 26.0776L37.9624 29.0328L36.6025 23.7875C36.4909 23.3075 36.6398 22.7905 37.0308 22.4581L41.3899 18.7089L35.9319 18.3577C35.4103 18.3207 34.9819 18.0071 34.7767 17.5454L32.5228 12.2814ZM12.2922 7.31392H3.3312C5.41785 11.9861 8.41715 15.532 12.2922 17.8778V7.31392ZM61.6588 7.31392H52.6984V17.8778C56.5729 15.5321 59.591 11.9863 61.6588 7.31392Z" fill="#539BF8"/>
</svg>
