<svg width="20" height="20" viewBox="0 0 20 20" fill="none" xmlns="http://www.w3.org/2000/svg">
<path fill-rule="evenodd" clip-rule="evenodd" d="M5 0H15C17.8 0 20 2.2 20 5V15C20 17.8 17.8 20 15 20H5C2.2 20 0 17.8 0 15V5C0 2.2 2.2 0 5 0ZM11.4181 7.53785H8.6434C8.62442 7.53788 8.60565 7.53418 8.58826 7.52697C8.57087 7.51977 8.55524 7.50921 8.54236 7.49598C8.52932 7.48298 8.51943 7.46743 8.51339 7.45041C8.50735 7.43339 8.5053 7.41532 8.50738 7.39747C8.69132 5.32016 10.8585 5 10.8805 5H13.483C13.5197 5.00017 13.555 5.01385 13.5814 5.03817C13.6063 5.0636 13.6202 5.09702 13.6203 5.13176C13.5879 7.20415 11.4401 7.53785 11.4181 7.53785ZM5.1297 8.56119H14.4124L14.4189 8.5575C14.8423 8.56885 15.2443 8.73672 15.5396 9.02541C15.8348 9.31409 16 9.70085 16 10.1035C16 10.5061 15.8348 10.8929 15.5396 11.1816C15.2443 11.4702 14.8423 11.6381 14.4189 11.6495H13.3321C13.1222 12.7515 12.3113 15 9.20239 15C5.08436 15 5.00016 11.0596 5.00016 11.0596V8.69049C4.99928 8.6738 5.00198 8.65713 5.0081 8.64147C5.01422 8.62581 5.02362 8.6115 5.03573 8.59941C5.04785 8.58731 5.06243 8.57769 5.07859 8.57112C5.09474 8.56455 5.11213 8.56117 5.1297 8.56119ZM13.9355 10.7231C14.0656 10.8055 14.2185 10.8493 14.3749 10.8491C14.5842 10.8487 14.7849 10.7695 14.9328 10.6286C15.0807 10.4878 15.1637 10.2969 15.1637 10.0979C15.1637 9.94932 15.1174 9.80405 15.0305 9.6805C14.9436 9.55695 14.8201 9.46068 14.6757 9.40386C14.5312 9.34705 14.3722 9.33224 14.2189 9.36133C14.0656 9.39041 13.9248 9.46207 13.8144 9.56724C13.7039 9.67241 13.6287 9.80637 13.5984 9.95216C13.5681 10.0979 13.5839 10.249 13.6439 10.3862C13.7039 10.5235 13.8054 10.6407 13.9355 10.7231Z" fill="#BCBCBC"/>
</svg>
