
<svg version="1.0" xmlns="http://www.w3.org/2000/svg"
 width="2967.000000pt" height="213.000000pt" viewBox="0 0 2967.000000 213.000000"
 preserveAspectRatio="xMidYMid meet">

<g transform="translate(0.000000,213.000000) scale(0.100000,-0.100000)"
fill="#fff" stroke="none">
<path d="M173 1273 c3 -457 8 -698 16 -738 17 -87 72 -197 124 -248 88 -85
209 -132 427 -164 150 -23 913 -26 1079 -5 374 48 531 164 576 426 12 73 15
204 15 747 l0 659 -270 0 -269 0 -3 -612 -3 -613 -28 -58 c-34 -69 -81 -100
-188 -124 -60 -14 -130 -17 -359 -17 -377 -1 -463 18 -527 113 -46 68 -47 76
-50 709 l-4 602 -270 0 -270 0 4 -677z"/>
<path d="M2772 1038 l3 -913 263 -3 262 -2 0 685 c0 377 3 685 8 684 4 0 243
-308 532 -684 l525 -684 403 0 402 -1 0 915 0 915 -265 0 -265 0 -2 -685 -3
-685 -520 684 -520 685 -413 1 -412 0 2 -912z"/>
<path d="M5550 1035 l0 -915 265 0 265 0 0 256 0 256 418 -5 c424 -6 492 -11
561 -47 89 -45 110 -101 118 -307 l6 -153 264 0 263 0 0 178 c0 416 -34 479
-295 537 -29 7 -27 8 33 30 204 74 273 224 259 560 -11 267 -69 380 -234 457
-129 61 -135 61 -1070 65 l-853 4 0 -916z m1490 490 c102 -32 124 -73 124
-235 0 -121 -13 -169 -55 -204 -56 -47 -76 -49 -566 -53 l-463 -4 0 254 c0
139 3 257 8 261 4 5 207 6 452 3 386 -4 452 -6 500 -22z"/>
<path d="M8052 1038 l3 -913 993 -3 992 -2 0 210 0 210 -725 0 -725 0 0 155 0
155 670 0 670 0 0 195 0 195 -670 0 -670 0 0 155 0 155 710 0 710 0 0 200 0
200 -980 0 -980 0 2 -912z"/>
<path d="M10715 1183 c-225 -422 -445 -833 -488 -915 l-78 -148 288 0 288 0
83 165 82 165 568 -2 567 -3 83 -162 82 -163 291 0 c160 0 288 3 286 8 -2 4
-223 415 -492 915 l-487 907 -332 0 -331 0 -410 -767z m971 -65 l144 -288
-375 0 c-353 0 -374 1 -367 18 4 9 88 176 186 371 l178 354 45 -84 c25 -46
110 -213 189 -371z"/>
<path d="M12970 1035 l0 -915 879 0 880 0 -2 212 -2 213 -610 5 -610 5 0 695
-1 695 -267 3 -267 2 0 -915z"/>
<path d="M16210 1035 l0 -915 990 0 990 0 0 210 0 210 -725 0 -725 0 0 155 0
155 669 0 c629 0 669 1 672 18 3 9 4 94 4 187 l-1 170 -672 3 -672 2 0 155 0
155 710 0 710 0 0 205 0 205 -975 0 -975 0 0 -915z"/>
<path d="M18480 1035 l0 -915 265 0 265 0 2 687 3 687 530 -687 530 -686 403
-1 402 0 0 915 0 915 -265 0 -265 0 -2 -685 -3 -686 -523 686 -523 685 -410 0
-409 0 0 -915z"/>
<path d="M21973 1940 c-209 -17 -365 -58 -459 -118 -157 -102 -213 -240 -235
-577 -16 -262 0 -590 36 -728 50 -191 172 -310 372 -361 156 -40 250 -48 663
-53 257 -3 454 -1 538 6 339 28 511 101 590 249 60 112 65 147 69 485 l5 307
-606 0 -606 0 0 -175 0 -175 351 0 352 0 -5 -80 c-6 -95 -22 -124 -89 -157
-68 -34 -153 -44 -419 -48 -569 -8 -676 30 -711 255 -17 112 -7 521 15 588 49
151 150 182 599 182 296 0 409 -10 484 -45 63 -28 84 -59 92 -133 l6 -57 258
-3 257 -2 0 84 c0 287 -78 427 -275 497 -145 51 -247 60 -730 64 -247 2 -496
-1 -552 -5z"/>
<path d="M24840 1035 l0 -915 265 0 265 0 2 686 3 687 530 -686 530 -687 403
0 402 0 0 915 0 915 -265 0 -265 0 -2 -686 -3 -686 -524 686 -523 686 -409 0
-409 0 0 -915z"/>
<path d="M23920 1025 l0 -905 270 0 270 0 0 905 0 905 -270 0 -270 0 0 -905z"/>
<path d="M27650 1020 l0 -900 975 0 975 0 0 205 0 205 -715 0 -715 0 0 155 0
155 665 0 665 0 -2 188 -3 187 -662 3 -663 2 0 150 0 150 700 0 700 0 0 200 0
200 -960 0 -960 0 0 -900z"/>
</g>
</svg>
