<svg width="52" height="72" viewBox="0 0 52 72" fill="none" xmlns="http://www.w3.org/2000/svg">
<path d="M16.5581 42.1481H2.60181C1.74598 42.1481 0.945666 41.7214 0.459934 41.0078C-0.0256989 40.2942 -0.134058 39.3846 0.169714 38.5742L14.0383 1.69512C14.226 1.19586 14.5594 0.766531 14.9935 0.46397C15.4282 0.160757 15.9428 -0.00129704 16.4704 7.81857e-06H39.8704C40.7359 -0.00129922 41.5447 0.434576 42.0283 1.16254C42.5113 1.88987 42.6055 2.81322 42.2791 3.62555L34.2026 23.707H49.4023C50.0724 23.707 50.716 23.9691 51.1998 24.4389C51.6828 24.9081 51.9692 25.5485 51.9976 26.2269C52.0266 26.9046 51.7957 27.5679 51.3533 28.0775L14.088 71.1062C13.5675 71.7041 12.8084 72.0322 12.0222 71.9975C11.236 71.9629 10.5079 71.5695 10.0403 70.9278C9.5734 70.2861 9.41797 69.4646 9.61789 68.6936L16.5522 42.148L16.5581 42.1481Z" fill="black"/>
</svg>
