<svg width="114" height="55" viewBox="0 0 114 55" fill="none" xmlns="http://www.w3.org/2000/svg">
<g clip-path="url(#clip0_853_52)">
<path d="M113.999 52.3568L113.999 2.32223C113.999 1.26667 112.732 4.82617e-06 111.677 4.78003e-06L2.3222 0C1.26666 -4.61393e-08 2.24239e-06 1.26667 2.19625e-06 2.32222L0 52.5667C-4.61398e-08 53.6222 1.05554 54.8889 2.53331 54.8889L111.678 54.8889C112.733 54.8889 114 53.8333 114 52.3556L113.999 52.3568ZM101.332 23.2234V25.3345H103.443C104.499 25.3345 105.554 26.3901 105.554 27.4457C105.554 28.5012 104.499 29.5568 103.443 29.5568L101.332 29.5568V31.6679C101.332 32.7234 100.277 33.779 99.2212 33.779C98.1656 33.779 97.1101 32.7234 97.1101 31.6679V29.5568H94.999C93.9434 29.5568 92.8879 28.5012 92.8879 27.4457C92.8879 26.3901 93.9434 25.3345 94.999 25.3345H97.1101V23.2234C97.1101 22.1679 98.1656 21.1123 99.2212 21.1123C100.277 21.1123 101.332 22.1679 101.332 23.2234ZM4.22218 11.6123L4.22218 7.3901C4.22218 5.70121 5.69994 4.22343 7.38881 4.22343L11.8221 4.22343C12.8776 4.22343 13.9332 5.27899 13.9332 6.33454C13.9332 7.3901 12.8776 8.44565 11.8221 8.44565H8.44436V11.6123C8.44436 12.6679 7.38881 13.7234 6.33327 13.7234C5.27772 13.7234 4.22218 12.6679 4.22218 11.6123ZM8.44436 31.6679V23.2234C8.44436 22.1679 9.4999 21.1123 10.5554 21.1123C11.611 21.1123 12.6665 22.1679 12.6665 23.2234V31.6679C12.6665 32.7234 11.611 33.779 10.5554 33.779C9.4999 33.779 8.44436 32.7234 8.44436 31.6679ZM21.1109 40.7457C20.6887 41.8012 19.6331 42.4345 18.3665 42.0123C16.4665 41.379 16.8887 39.479 17.0998 39.2679L25.5442 13.9345C25.7553 13.0901 26.5997 12.4568 27.6553 12.4568C28.7108 12.4568 29.3441 13.0901 29.7664 13.9345L38.2107 39.2679C38.6329 40.3234 37.9996 41.5901 36.9441 42.0123C35.8885 42.4345 34.6219 41.8012 34.1996 40.7457L31.6663 33.779H23.222L21.1109 40.7457ZM46.444 40.7457C46.0217 41.8012 44.9662 42.4345 43.6995 42.0123C41.5884 41.379 42.2218 39.479 42.4329 39.2679L50.8772 13.9345C51.0883 13.0901 51.9328 12.4568 52.9883 12.4568C54.0439 12.4568 54.6772 13.0901 55.0994 13.9345L63.5438 39.2679C63.966 40.3234 63.3327 41.5901 62.2771 42.0123C61.2216 42.4345 59.9549 41.8012 59.5327 40.7457L56.9994 33.779L48.555 33.779L46.444 40.7457ZM71.777 40.7457C71.3548 41.8012 70.2993 42.4345 69.0326 42.0123C67.1326 41.5901 67.5548 39.479 67.7659 39.2679L76.2103 13.9345C76.4214 13.0901 77.2659 12.4568 78.3214 12.4568C79.3769 12.4568 80.0103 13.0901 80.4325 13.9345L88.8768 39.2679C89.299 40.3234 88.6657 41.5901 87.6102 42.0123C86.5546 42.4345 85.288 41.8012 84.8658 40.7457L82.3325 33.779H73.8881L71.777 40.7457ZM90.7768 50.6679C89.7213 50.6679 88.6657 49.6123 88.6657 48.5568C88.6657 47.5012 89.7213 46.4457 90.7768 46.4457H94.999C96.0545 46.4457 97.1101 47.5012 97.1101 48.5568C97.1101 49.6123 96.0545 50.6679 94.999 50.6679H90.7768ZM103.443 50.6679C102.388 50.6679 101.332 49.6123 101.332 48.5568C101.332 47.5012 102.388 46.4457 103.443 46.4457H105.554V40.1123C105.554 39.0568 106.61 38.0012 107.666 38.0012C108.721 38.0012 109.777 39.0568 109.777 40.1123V46.8679C109.777 48.979 108.088 50.6679 105.977 50.6679H103.443Z" fill="black"/>
<path d="M75.5309 29.5556H80.6914L78.1111 21.5803L75.5309 29.5556Z" fill="black"/>
<path d="M50.1975 29.5556H55.358L52.7778 21.5803L50.1975 29.5556Z" fill="black"/>
<path d="M24.3951 29.5556H30.0247L27.2099 21.5803L24.3951 29.5556Z" fill="black"/>
</g>
<defs>
<clipPath id="clip0_853_52">
<rect width="114" height="55" fill="white"/>
</clipPath>
</defs>
</svg>
