<svg width="89" height="76" viewBox="0 0 89 76" fill="none" xmlns="http://www.w3.org/2000/svg">
<path d="M3.8122 32.1504H9.24678C7.59769 29.8519 6.62604 27.0414 6.62604 24.0123C6.62604 16.3027 12.9066 10.0225 20.6159 10.0225C24.0441 10.0225 27.1864 11.2608 29.6211 13.3161C32.0956 5.44829 39.4258 0 47.754 0C58.2303 0 66.7555 8.52445 66.7555 19.0014C66.7555 24.0962 64.739 28.7324 61.4593 32.151H66.8536C68.4687 32.151 69.7796 33.4619 69.7796 35.077V39.8712L84.5796 32.5512C86.4992 31.4231 88.9853 32.7955 88.9853 35.076V73.0679C88.9514 75.1995 86.7403 76.6588 84.7673 75.685L69.7801 68.2738V73.0679C69.7801 74.6831 68.4691 75.994 66.854 75.994H3.81084C2.19568 75.994 0.884766 74.6831 0.884766 73.0679V35.0773C0.884766 33.4622 2.1957 32.1512 3.81084 32.1512L3.8122 32.1504ZM40.1377 42.392C43.2537 42.392 43.2537 47.131 40.1377 47.131H37.6834C34.5674 47.131 34.5674 42.392 37.6834 42.392H40.1377ZM10.8064 47.131C7.68942 47.131 7.68834 42.392 10.8064 42.392H29.8024C32.9184 42.392 32.9184 47.131 29.8024 47.131H10.8064ZM32.8572 30.7813C32.5937 31.2552 32.3048 31.7116 31.9899 32.1506H34.051C33.6322 31.7138 33.2341 31.2563 32.8572 30.7813H32.8572ZM47.7562 32.1506C55.0329 32.1506 60.9048 26.2777 60.9048 19.001C60.9048 11.7255 55.0319 5.85242 47.7562 5.85242C40.4796 5.85242 34.6067 11.7244 34.6067 19.001C34.6067 26.2787 40.4786 32.1506 47.7562 32.1506ZM20.6179 32.1506C25.1254 32.1506 28.7549 28.5188 28.7549 24.0125C28.7549 19.5061 25.1254 15.8744 20.6179 15.8744C16.1094 15.8744 12.4798 19.5039 12.4798 24.0125C12.4798 28.521 16.1094 32.1506 20.6179 32.1506ZM69.7825 46.3833V61.7614L83.1362 68.3648V39.7785L69.7825 46.383V46.3833ZM63.9302 38.003H6.74003V70.142H63.9302V38.003Z" fill="black"/>
</svg>
